<?xml version="1.0" encoding="utf-8"?>
<!-- Generator: Adobe Illustrator 25.0.1, SVG Export Plug-In . SVG Version: 6.00 Build 0)  -->
<svg version="1.1" id="Layer_1" xmlns="http://www.w3.org/2000/svg" xmlns:xlink="http://www.w3.org/1999/xlink" x="0px" y="0px"
	 viewBox="0 0 500 500" style="enable-background:new 0 0 500 500;" xml:space="preserve">
<style type="text/css">
	.st0{fill:#92E3A9;}
	.st1{opacity:0.7;}
	.st2{fill:#FFFFFF;}
	.st3{opacity:0.2;fill:#263238;enable-background:new    ;}
	.st4{opacity:0.2;enable-background:new    ;}
	.st5{fill:#FFFFFF;stroke:#263238;stroke-miterlimit:10;}
	.st6{fill:#263238;stroke:#FFFFFF;stroke-miterlimit:10;}
	.st7{opacity:0.2;}
	.st8{fill:#92E3A9;stroke:#263238;stroke-linecap:round;stroke-linejoin:round;stroke-miterlimit:10;}
	.st9{fill:#263238;}
	.st10{clip-path:url(#SVGID_2_);}
	.st11{opacity:0.5;fill:#FFFFFF;enable-background:new    ;}
	.st12{opacity:0.5;}
	.st13{clip-path:url(#SVGID_4_);}
	.st14{fill:none;}
	.st15{fill:none;stroke:#263238;stroke-miterlimit:10;}
	.st16{clip-path:url(#SVGID_6_);fill:#92E3A9;}
	.st17{clip-path:url(#SVGID_8_);}
	.st18{opacity:0.5;clip-path:url(#SVGID_10_);fill:#FFFFFF;enable-background:new    ;}
	.st19{opacity:0.5;clip-path:url(#SVGID_12_);}
	.st20{fill:none;stroke:#263238;stroke-linecap:round;stroke-linejoin:round;stroke-miterlimit:10;}
	.st21{fill:#FFFFFF;stroke:#263238;stroke-linecap:round;stroke-linejoin:round;stroke-miterlimit:10;}
	.st22{fill:#757575;stroke:#263238;stroke-linecap:round;stroke-linejoin:round;stroke-miterlimit:10;}
	.st23{fill:#999999;stroke:#263238;stroke-linecap:round;stroke-linejoin:round;stroke-miterlimit:10;}
	.st24{fill:#BFBFBF;stroke:#263238;stroke-linecap:round;stroke-linejoin:round;stroke-miterlimit:10;}
	.st25{opacity:0.1;fill:#FFFFFF;enable-background:new    ;}
	.st26{clip-path:url(#SVGID_14_);}
	.st27{fill:#FFCA28;stroke:#EF6C00;stroke-width:3;stroke-linecap:round;stroke-linejoin:round;stroke-miterlimit:10;}
	.st28{fill:none;stroke:#FFCA28;stroke-width:6;stroke-linecap:round;stroke-linejoin:round;stroke-miterlimit:10;}
</style>
<g id="Background_Simple">
	<g>
		<path class="st0" d="M-70.4,228c0,9.6-1,19.2-3.3,28.5c-0.8,3.1-1.6,6.1-2.7,9.1c-0.3,0.9-0.6,1.7-0.9,2.6
			c-0.3,0.7-0.5,1.4-0.8,2.1c-0.1,0.2-0.1,0.4-0.2,0.6c-0.3,0.7-0.6,1.4-0.9,2.1c0,0.1-0.1,0.2-0.1,0.4c-0.3,0.7-0.6,1.4-0.9,2.1
			c-0.1,0.3-0.3,0.6-0.4,0.9c-0.3,0.6-0.6,1.2-0.9,1.8c-0.3,0.6-0.6,1.3-1,1.9c-0.1,0.2-0.2,0.5-0.4,0.7c-0.3,0.5-0.6,1.1-0.9,1.6
			c-0.2,0.4-0.5,0.9-0.7,1.3c-1.1,2-2.2,3.9-3.3,5.8c-0.5,0.8-1,1.6-1.4,2.3c-0.1,0.2-0.2,0.4-0.4,0.6c-0.6,0.9-1.1,1.8-1.7,2.6
			c-0.5,0.7-0.9,1.4-1.4,2.1c-0.4,0.6-0.8,1.2-1.3,1.9c-0.1,0.1-0.2,0.3-0.3,0.4c-0.4,0.6-0.9,1.3-1.4,1.9c-0.6,0.8-1.1,1.6-1.7,2.3
			c-0.1,0.2-0.2,0.3-0.4,0.5c-0.6,0.9-1.3,1.8-2,2.6c-0.4,0.5-0.8,1-1.2,1.6c-0.7,1-1.5,1.9-2.2,2.8c-0.7,0.9-1.4,1.8-2.2,2.7
			c-0.1,0.1-0.2,0.2-0.2,0.3c-0.7,0.9-1.4,1.8-2.2,2.6c-0.2,0.3-0.4,0.5-0.7,0.8c-0.7,0.8-1.4,1.6-2,2.4c-2,2.3-3.9,4.6-5.9,6.9
			c-4,4.7-8.2,9.3-12.4,13.9c-3.5,3.8-7.1,7.6-10.7,11.3c-17.4,17.9-36.3,34.6-56.8,47.9c-2.5,1.6-5.1,3.3-7.7,4.8
			c-1,0.6-1.9,1.1-2.9,1.7c-0.2,0.1-0.3,0.2-0.5,0.3c-1,0.6-2,1.1-3,1.6c-1,0.6-2,1.1-3,1.6c-0.5,0.2-0.9,0.5-1.4,0.7c-2,1-4,2-6,3
			c-1.1,0.5-2.2,1-3.3,1.5c-1,0.5-2,0.9-3,1.4c-0.4,0.2-0.8,0.4-1.2,0.5c-0.9,0.4-1.9,0.8-2.8,1.2c-1.8,0.7-3.6,1.4-5.5,2.1
			c-0.7,0.3-1.4,0.5-2.1,0.8c-0.4,0.1-0.8,0.3-1.2,0.4c-0.7,0.2-1.3,0.4-2,0.6c-0.6,0.2-1.1,0.4-1.7,0.5c0,0,0,0-0.1,0
			c-1.1,0.4-2.3,0.7-3.4,1c-1.8,0.5-3.6,1-5.4,1.5c-1.2,0.3-2.4,0.6-3.6,0.9c-1.1,0.3-2.3,0.5-3.4,0.7c-0.1,0-0.2,0-0.3,0
			c-1.2,0.2-2.4,0.5-3.6,0.7c-0.6,0.1-1.2,0.2-1.8,0.3c-0.6,0.1-1.2,0.2-1.8,0.3c-0.5,0.1-1.1,0.2-1.7,0.2c-0.7,0.1-1.4,0.2-2,0.3
			c-7.1,0.9-14.2,1.3-21.4,1.2c-0.4,0-0.9,0-1.3,0c-6.5-0.1-12.9-0.6-19.4-1.5c-0.5-0.1-0.9-0.1-1.4-0.2c-0.8-0.1-1.6-0.2-2.4-0.3
			c-0.6-0.1-1.3-0.2-1.9-0.3c-2.7-0.4-5.3-0.9-8-1.4c-0.6-0.1-1.2-0.2-1.8-0.4c-1.8-0.4-3.6-0.8-5.3-1.2c-1.2-0.3-2.4-0.6-3.5-0.9
			c-0.6-0.1-1.2-0.3-1.8-0.5c-0.6-0.1-1.2-0.3-1.8-0.5c-2.4-0.6-4.7-1.3-7-2c-2.7-0.8-5.4-1.7-8.1-2.6c-1-0.3-2-0.7-2.9-1
			c-3-1.1-6-2.2-9-3.4c-0.5-0.2-1.1-0.4-1.6-0.7c-0.4-0.2-0.9-0.4-1.3-0.6c-0.3-0.1-0.6-0.3-0.9-0.4c-1.9-0.9-4.1-1.9-6.3-3.1
			c-0.4-0.2-0.8-0.4-1.2-0.6c-1.4-0.7-2.8-1.5-4.3-2.3c-3.1-1.7-6.5-3.6-10-5.7c-40-23.5-101.3-67.7-115.6-84.5
			c-0.7-0.9-1.4-1.7-2.2-2.6c-0.5-0.7-1.1-1.4-1.6-2.1c-0.5-0.6-1-1.3-1.4-1.9c-0.4-0.6-0.8-1.1-1.2-1.7c-0.4-0.5-0.8-1.1-1.1-1.6
			c0,0-0.1-0.1-0.1-0.1c-0.5-0.7-0.9-1.3-1.3-2c-0.4-0.6-0.8-1.3-1.2-2c-0.2-0.3-0.4-0.6-0.6-1c-0.4-0.7-0.9-1.5-1.3-2.2
			c0,0,0,0,0,0c-0.5-0.8-0.9-1.6-1.4-2.5c-0.8-1.5-1.5-2.9-2.2-4.4c-0.2-0.4-0.4-0.8-0.5-1.1c-1.4-3-2.7-6.1-3.7-9.3
			c-0.4-1.1-0.7-2.2-1.1-3.3c-0.4-1.4-0.8-2.9-1.2-4.3c-0.1-0.3-0.1-0.6-0.2-0.9c-0.2-0.8-0.3-1.5-0.5-2.3c-0.2-1.1-0.4-2.1-0.6-3.2
			c0-0.3-0.1-0.5-0.1-0.8c-0.1-0.5-0.2-1.1-0.2-1.7c-0.1-0.7-0.2-1.3-0.2-2c0-0.2,0-0.5-0.1-0.7c-0.1-0.6-0.1-1.1-0.1-1.7
			c0,0,0-0.1,0-0.1c0-0.7-0.1-1.4-0.1-2c0-0.1,0-0.1,0-0.2c0-0.7,0-1.4-0.1-2.1c0-0.3,0-0.5,0-0.8c0-0.4,0-0.8,0-1.2
			c0-1,0-2.1,0.1-3.1c0-0.7,0.1-1.4,0.2-2c0.1-1.3,0.3-2.7,0.5-4c0.1-0.7,0.2-1.4,0.3-2c0.2-1.4,0.5-2.7,0.9-4c0.9-3.6,2-7,3.4-10.2
			c1.1-2.5,2.3-5,3.6-7.3c0.1-0.2,0.2-0.4,0.3-0.6c5.4-9.5,12.7-17.9,21-25.7c0.9-0.8,1.8-1.7,2.7-2.5c1-0.9,1.9-1.7,2.9-2.6
			c0.1-0.1,0.1-0.1,0.2-0.2c1.5-1.4,3.1-2.7,4.7-4c2.5-2.1,4.9-4.1,7.5-6.1c0.1-0.1,0.2-0.1,0.2-0.2c2.1-1.7,4.3-3.4,6.5-5.1
			c3.4-2.6,6.8-5.2,10.1-7.9c0.9-0.7,1.8-1.4,2.6-2.1c1-0.8,1.9-1.5,2.9-2.3c9-7.2,16.7-14.8,23.9-22.6c1.4-1.5,2.8-3.1,4.1-4.6
			c0.6-0.7,1.3-1.5,1.9-2.2c9.1-10.4,17.6-20.9,27.1-30.8c2.2-2.4,4.5-4.7,6.9-7c2-1.9,4-3.8,6.1-5.6c2.4-2.1,4.9-4.2,7.5-6.2
			c3.6-2.8,7.3-5.4,11.3-7.9c1-0.6,1.9-1.2,2.9-1.8c99.7-62,173.1-41.7,222.1,0c3.7,3.1,7.2,6.4,10.7,9.8c2.1,2,4.1,4.1,6,6.2
			c0.2,0.2,0.4,0.4,0.6,0.7c1.4,1.5,2.7,2.9,4,4.4c0.4,0.4,0.8,0.9,1.1,1.3c0.6,0.7,1.1,1.3,1.7,2c0.7,0.8,1.4,1.6,2,2.4
			c0.4,0.5,0.9,1,1.3,1.6c2.7,3.4,5.3,6.8,7.8,10.2c0.5,0.7,1,1.4,1.5,2.1c3.4,4.8,6.6,9.6,9.5,14.5c0.4,0.7,0.8,1.4,1.2,2.1
			c0.4,0.7,0.8,1.4,1.2,2.1c0.4,0.7,0.8,1.4,1.2,2.1c0.4,0.7,0.8,1.4,1.2,2.1c0.4,0.7,0.8,1.4,1.1,2.1c0.4,0.7,0.8,1.4,1.1,2
			c0.4,0.7,0.7,1.4,1.1,2s0.7,1.4,1.1,2c0.3,0.7,0.7,1.3,1,2c0.3,0.7,0.7,1.3,1,2c1.3,2.6,2.5,5.2,3.7,7.8c0.6,1.3,1.2,2.6,1.7,3.9
			c2.5,5.7,4.6,11.2,6.4,16.3c0,0,0,0.1,0,0.1c0.2,0.5,0.3,1,0.5,1.4c0.2,0.5,0.3,1,0.5,1.5c0.1,0.4,0.2,0.8,0.4,1.1
			c0.2,0.6,0.4,1.1,0.5,1.7c0.2,0.6,0.4,1.2,0.5,1.8c0.3,1.1,0.6,2.2,1,3.4c0.3,0.9,0.5,1.9,0.8,2.9c0,0.2,0.1,0.4,0.1,0.5
			c0,0.1,0.1,0.3,0.1,0.4c0.1,0.6,0.3,1.1,0.4,1.7c0.4,1.5,0.7,3,1,4.5c0.2,0.8,0.3,1.6,0.5,2.4c0,0.1,0.1,0.3,0.1,0.5
			c0.1,0.8,0.3,1.5,0.4,2.3c0.2,1,0.4,2.1,0.5,3.1c0.1,0.8,0.2,1.6,0.4,2.4c0,0.1,0,0.2,0,0.4c0.1,0.5,0.1,1.1,0.2,1.6
			c0.1,0.4,0.1,0.9,0.2,1.3c0.2,1.6,0.3,3.2,0.5,4.8c0,0.4,0.1,0.7,0.1,1.1c0,0.6,0.1,1.2,0.1,1.8c0,0.7,0.1,1.3,0.1,2
			c0,0.5,0,1,0.1,1.6c0,0.8,0,1.5,0.1,2.3C-70.4,226.2-70.4,227.1-70.4,228z"/>
		<g class="st1">
			<path class="st2" d="M-70.4,228c0,9.6-1,19.2-3.3,28.5c-0.8,3.1-1.6,6.1-2.7,9.1c-0.3,0.9-0.6,1.7-0.9,2.6
				c-0.3,0.7-0.5,1.4-0.8,2.1c-0.1,0.2-0.1,0.4-0.2,0.6c-0.3,0.7-0.6,1.4-0.9,2.1c0,0.1-0.1,0.2-0.1,0.4c-0.3,0.7-0.6,1.4-0.9,2.1
				c-0.1,0.3-0.3,0.6-0.4,0.9c-0.3,0.6-0.6,1.2-0.9,1.8c-0.3,0.6-0.6,1.3-1,1.9c-0.1,0.2-0.2,0.5-0.4,0.7c-0.3,0.5-0.6,1.1-0.9,1.6
				c-0.2,0.4-0.5,0.9-0.7,1.3c-1.1,2-2.2,3.9-3.3,5.8c-0.5,0.8-1,1.6-1.4,2.3c-0.1,0.2-0.2,0.4-0.4,0.6c-0.6,0.9-1.1,1.8-1.7,2.6
				c-0.5,0.7-0.9,1.4-1.4,2.1c-0.4,0.6-0.8,1.2-1.3,1.9c-0.1,0.1-0.2,0.3-0.3,0.4c-0.4,0.6-0.9,1.3-1.4,1.9
				c-0.6,0.8-1.1,1.6-1.7,2.3c-0.1,0.2-0.2,0.3-0.4,0.5c-0.6,0.9-1.3,1.8-2,2.6c-0.4,0.5-0.8,1-1.2,1.6c-0.7,1-1.5,1.9-2.2,2.8
				c-0.7,0.9-1.4,1.8-2.2,2.7c-0.1,0.1-0.2,0.2-0.2,0.3c-0.7,0.9-1.4,1.8-2.2,2.6c-0.2,0.3-0.4,0.5-0.7,0.8c-0.7,0.8-1.4,1.6-2,2.4
				c-2,2.3-3.9,4.6-5.9,6.9c-4,4.7-8.2,9.3-12.4,13.9c-3.5,3.8-7.1,7.6-10.7,11.3c-17.4,17.9-36.3,34.6-56.8,47.9
				c-2.5,1.6-5.1,3.3-7.7,4.8c-1,0.6-1.9,1.1-2.9,1.7c-0.2,0.1-0.3,0.2-0.5,0.3c-1,0.6-2,1.1-3,1.6c-1,0.6-2,1.1-3,1.6
				c-0.5,0.2-0.9,0.5-1.4,0.7c-2,1-4,2-6,3c-1.1,0.5-2.2,1-3.3,1.5c-1,0.5-2,0.9-3,1.4c-0.4,0.2-0.8,0.4-1.2,0.5
				c-0.9,0.4-1.9,0.8-2.8,1.2c-1.8,0.7-3.6,1.4-5.5,2.1c-0.7,0.3-1.4,0.5-2.1,0.8c-0.4,0.1-0.8,0.3-1.2,0.4c-0.7,0.2-1.3,0.4-2,0.6
				c-0.6,0.2-1.1,0.4-1.7,0.5c0,0,0,0-0.1,0c-1.1,0.4-2.3,0.7-3.4,1c-1.8,0.5-3.6,1-5.4,1.5c-1.2,0.3-2.4,0.6-3.6,0.9
				c-1.1,0.3-2.3,0.5-3.4,0.7c-0.1,0-0.2,0-0.3,0c-1.2,0.2-2.4,0.5-3.6,0.7c-0.6,0.1-1.2,0.2-1.8,0.3c-0.6,0.1-1.2,0.2-1.8,0.3
				c-0.5,0.1-1.1,0.2-1.7,0.2c-0.7,0.1-1.4,0.2-2,0.3c-7.1,0.9-14.2,1.3-21.4,1.2c-0.4,0-0.9,0-1.3,0c-6.5-0.1-12.9-0.6-19.4-1.5
				c-0.5-0.1-0.9-0.1-1.4-0.2c-0.8-0.1-1.6-0.2-2.4-0.3c-0.6-0.1-1.3-0.2-1.9-0.3c-2.7-0.4-5.3-0.9-8-1.4c-0.6-0.1-1.2-0.2-1.8-0.4
				c-1.8-0.4-3.6-0.8-5.3-1.2c-1.2-0.3-2.4-0.6-3.5-0.9c-0.6-0.1-1.2-0.3-1.8-0.5c-0.6-0.1-1.2-0.3-1.8-0.5c-2.4-0.6-4.7-1.3-7-2
				c-2.7-0.8-5.4-1.7-8.1-2.6c-1-0.3-2-0.7-2.9-1c-3-1.1-6-2.2-9-3.4c-0.5-0.2-1.1-0.4-1.6-0.7c-0.4-0.2-0.9-0.4-1.3-0.6
				c-0.3-0.1-0.6-0.3-0.9-0.4c-1.9-0.9-4.1-1.9-6.3-3.1c-0.4-0.2-0.8-0.4-1.2-0.6c-1.4-0.7-2.8-1.5-4.3-2.3c-3.1-1.7-6.5-3.6-10-5.7
				c-40-23.5-101.3-67.7-115.6-84.5c-0.7-0.9-1.4-1.7-2.2-2.6c-0.5-0.7-1.1-1.4-1.6-2.1c-0.5-0.6-1-1.3-1.4-1.9
				c-0.4-0.6-0.8-1.1-1.2-1.7c-0.4-0.5-0.8-1.1-1.1-1.6c0,0-0.1-0.1-0.1-0.1c-0.5-0.7-0.9-1.3-1.3-2c-0.4-0.6-0.8-1.3-1.2-2
				c-0.2-0.3-0.4-0.6-0.6-1c-0.4-0.7-0.9-1.5-1.3-2.2c0,0,0,0,0,0c-0.5-0.8-0.9-1.6-1.4-2.5c-0.8-1.5-1.5-2.9-2.2-4.4
				c-0.2-0.4-0.4-0.8-0.5-1.1c-1.4-3-2.7-6.1-3.7-9.3c-0.4-1.1-0.7-2.2-1.1-3.3c-0.4-1.4-0.8-2.9-1.2-4.3c-0.1-0.3-0.1-0.6-0.2-0.9
				c-0.2-0.8-0.3-1.5-0.5-2.3c-0.2-1.1-0.4-2.1-0.6-3.2c0-0.3-0.1-0.5-0.1-0.8c-0.1-0.5-0.2-1.1-0.2-1.7c-0.1-0.7-0.2-1.3-0.2-2
				c0-0.2,0-0.5-0.1-0.7c-0.1-0.6-0.1-1.1-0.1-1.7c0,0,0-0.1,0-0.1c0-0.7-0.1-1.4-0.1-2c0-0.1,0-0.1,0-0.2c0-0.7,0-1.4-0.1-2.1
				c0-1.7,0-3.5,0.1-5.2c0-0.7,0.1-1.4,0.2-2c0.1-1.3,0.3-2.7,0.5-4c0.1-0.7,0.2-1.4,0.3-2c0.2-1.4,0.5-2.7,0.9-4
				c0.9-3.6,2-7,3.4-10.2c1.1-2.5,2.3-5,3.6-7.3c0.1-0.2,0.2-0.4,0.3-0.6c5.4-9.5,12.7-17.9,21-25.7c0.5-0.4,0.9-0.9,1.4-1.3
				c0.4-0.4,0.8-0.8,1.3-1.1c0.9-0.9,1.9-1.7,2.9-2.6c0.1-0.1,0.1-0.1,0.2-0.2c1.5-1.4,3.1-2.7,4.7-4c2.5-2.1,4.9-4.1,7.5-6.1
				c0.1-0.1,0.2-0.1,0.2-0.2c2.1-1.7,4.3-3.4,6.5-5.1c1.1-0.8,2.2-1.7,3.3-2.5c2.3-1.8,4.6-3.6,6.9-5.3c0.9-0.7,1.8-1.4,2.6-2.1
				c1-0.8,1.9-1.5,2.9-2.3c9-7.2,16.7-14.8,23.9-22.6c1.4-1.5,2.8-3.1,4.1-4.6c0.7-0.7,1.3-1.5,1.9-2.2
				c9.1-10.4,17.6-20.9,27.1-30.8c2.2-2.4,4.6-4.7,6.9-7c2-1.9,4-3.8,6.1-5.6c2.4-2.1,4.9-4.2,7.5-6.2c3.5-2.8,7.3-5.4,11.3-7.9
				c1-0.6,2-1.2,2.9-1.8c99.7-62,173.1-41.7,222.1,0c3.7,3.1,7.2,6.4,10.7,9.8c2.1,2,4.1,4.1,6,6.2c0.2,0.2,0.4,0.4,0.6,0.7
				c1.4,1.5,2.7,2.9,4,4.4c0.4,0.4,0.8,0.9,1.1,1.3c0.6,0.7,1.1,1.3,1.7,2c0.7,0.8,1.4,1.6,2,2.4c0.4,0.5,0.9,1,1.3,1.6
				c2.7,3.4,5.3,6.8,7.8,10.2c0.5,0.7,1,1.4,1.5,2.1c3.4,4.8,6.6,9.6,9.5,14.5c0.4,0.7,0.8,1.4,1.2,2.1c0.4,0.7,0.8,1.4,1.2,2.1
				c0.4,0.7,0.8,1.4,1.2,2.1c0.4,0.7,0.8,1.4,1.2,2.1c0.4,0.7,0.8,1.4,1.1,2.1c0.4,0.7,0.8,1.4,1.1,2c0.4,0.7,0.7,1.4,1.1,2
				s0.7,1.4,1.1,2c0.3,0.7,0.7,1.3,1,2c0.3,0.7,0.7,1.3,1,2c1.3,2.6,2.6,5.2,3.7,7.8c0.6,1.3,1.2,2.6,1.7,3.9
				c2.5,5.7,4.6,11.2,6.4,16.3c0,0,0,0.1,0,0.1c0.2,0.5,0.3,1,0.5,1.4c0.2,0.5,0.3,1,0.5,1.5c0.1,0.4,0.2,0.8,0.4,1.1
				c0.2,0.6,0.4,1.1,0.5,1.7c0.2,0.6,0.4,1.2,0.5,1.8c0.3,1.1,0.6,2.2,1,3.4c0.3,0.9,0.5,1.9,0.8,2.9c0,0.2,0.1,0.4,0.1,0.5
				c0,0.1,0.1,0.3,0.1,0.4c0.1,0.6,0.3,1.1,0.4,1.7c0.4,1.5,0.7,3,1,4.5c0.2,0.8,0.3,1.6,0.5,2.4c0,0.1,0.1,0.3,0.1,0.5
				c0.1,0.8,0.3,1.5,0.4,2.3c0.2,1,0.4,2.1,0.5,3.1c0.1,0.8,0.2,1.6,0.4,2.4c0,0.1,0,0.2,0,0.4c0.1,0.5,0.1,1.1,0.2,1.6
				c0.1,0.4,0.1,0.9,0.2,1.3c0.2,1.6,0.3,3.2,0.5,4.8c0,0.4,0.1,0.7,0.1,1.1c0,0.6,0.1,1.2,0.1,1.8c0,0.7,0.1,1.3,0.1,2
				c0,0.5,0,1,0.1,1.6c0,0.8,0,1.5,0.1,2.3C-70.4,226.2-70.4,227.1-70.4,228z"/>
		</g>
	</g>
</g>
<g id="Plants">
	<path class="st3" d="M-519,265.8C-519.2,265.7-519.1,265.6-519,265.8L-519,265.8z"/>
	<g>
		<path class="st4" d="M-425.4,257c-1,6.8-6,12.3-12.6,14.5l-2.5,0.8c-8.9,12.6-24.6,18-37.9,10.2l-3.9-2.3l-10.9-13
			c0,0-0.1,0-0.1,0c-3.5,0.7-7.4,0.2-9.9-2.2c-0.4,2.1-3.2,3.4-5.1,2.3s-2.1-4.2-0.4-5.5c-2.2,1.9-5.6,1-7.7-1.1
			c-0.1-5.8,0.5-11.6,2-17.3c0.9-3.6,2-7,3.4-10.2c1.1-2.5,2.3-5,3.6-7.3c0.1-0.2,0.2-0.4,0.3-0.6c2-3.5,4.2-6.8,6.6-10
			c0.4-0.4,0.8-0.8,1.3-1.1c1-0.9,1.9-1.7,2.9-2.6c0.1-0.1,0.1-0.1,0.2-0.2c1.5-1.4,3.1-2.7,4.7-4c2.5-2.1,4.9-4.1,7.5-6.1
			c0.1-0.1,0.2-0.1,0.2-0.2c2.1-1.7,4.3-3.4,6.5-5.1c1.1-0.8,2.2-1.7,3.3-2.5c0.7,0.1,1.3,0.2,1.9,0.4c2.7,0.9,3.1,3.4,5,5.1
			c2.5,2.2,4.8-1.5,8.6-1.4c11.6,0.4,7.1,12.3,12.8,10.8c24.6-6.5,20.4,24.9,9.8,31.9C-429.7,245.4-424.2,248.8-425.4,257z"/>
		<g>
			<ellipse class="st5" cx="-478.3" cy="246" rx="41.4" ry="40.9"/>
			<ellipse class="st6" cx="-478.3" cy="244.3" rx="37.8" ry="37.3"/>
		</g>
		<g>
			<g>
				<g>
					<g>
						<g>
							<g>
								<path class="st0" d="M-518.9,259c-2.4,1.5-3.1,6.5-1.2,8.6c1.9,2.1,5.5,0.5,6.2-2.9c0.3,0.9,1.5,1.1,2,0.3
									c0.4-0.6,0.4-1.5,0.1-2.1c-0.2-0.2-0.1-0.3,0,0c1.2,1,3.3-0.1,3.6-2.2c-0.9,5.5,4.1,10.3,7.8,7.5c-1.1,2.3,0.3,5.4,2.2,6
									c1.9,0.6,3.9-0.5,5.8-1.8c1.8-1.2,3.7-2.7,5.7-2.8c1.7-0.1,3.3,0.9,5,1.5c5.3,1.8,11.4-0.6,15.4-6.1c2.7,4.5,9.2,2.9,11-2.8
									c0.4,2.7,2.2,4.7,4.2,4.7c2,0,4.1-1.9,4.8-4.6l0,0c0,2.5,2.3,3.7,3.9,2.1c2-2.1,3.3-5.8,2.3-8.9c2.7-0.1,5.4-3.3,5.8-6.9
									c0.4-3.7-1.4-7.3-4.1-8.1c4.5-1.9,8-8,8.2-14.3c0.2-6.3-3.1-12.1-7.5-13.6c-1.7-0.6-3.7-0.4-5.1,1.1
									c-0.5-3.6-2.1-6.8-4.5-8.4c-3.8-2.6-9.1-0.8-11.9,4c1.4-2.5,1.5-6,0.2-8.4c-1.3-2.3-3.8-3.3-5.9-2.2
									c-0.5-3.8-3.4-6.6-6.3-5.8c-2.9,0.7-5.2,4.8-5,8.7c-0.3-3.1-4-3.9-5.3-1.3c0.1,0.2-0.1,0.1,0,0c-1.8-3.9-5.6-5.8-9-4.7
									c-3.7,1.2-6.8,5.8-7.3,10.9c-2.5-2.3-6.3-2.2-9,0.2c-2.7,2.5-4.3,7.1-3.8,11.3c-2.9-2.8-7.7-1.3-9.7,3.1
									c-2,4.4-0.6,10.6,2.7,12.4c-2.3,0.3-4.3,3.4-4.3,6.5c0,3.1,2,5.7,4.3,5.6c-2.3,0.2-4.5,2.9-4.8,6.1
									C-522.7,255.2-521.1,258.3-518.9,259z"/>
							</g>
						</g>
						<g class="st7">
							<g>
								<path class="st2" d="M-480.8,244.7c-1.2-1-2.6-1.4-4-1c-1.4,0.4-2.7,1.9-3,3.7c-0.3,1.8,0.5,3.8,1.9,4.1
									c1.7,0.4,3.4-1.5,5.1-1.3c0.6,0.1,1.2,0.4,1.8,0.6c2.5,0.7,5-1.5,7.1-3.6c0.7-0.7,1.5-1.5,2-2.5c0.5-1,0.7-2.3,0.3-3.3
									c-0.6-1.3-2.1-1.5-3.4-1.2c-2.5,0.5-5,2-7,4.1c0.1-0.5,0.1-1,0.2-1.5L-480.8,244.7z"/>
							</g>
							<g>
								<path class="st2" d="M-444.7,239.7c-0.7-0.6-1.3-1.1-2.1-1.3c-0.8-0.2-1.7,0.1-2.3,0.9c-0.7,1.2-0.3,2.9,0.6,3.8
									s2,1,3.1,1.2c1.1,0.2,2.6,0.1,3.2-1.2c0.4-1,0.1-2.2-0.5-2.9c-0.6-0.7-1.4-1-2.2-1.3L-444.7,239.7z"/>
							</g>
							<g>
								<path class="st2" d="M-501.2,219.3c-2.3,1.4-4.1,4.2-4.7,7.3c-0.2,0.9-0.2,2.1,0.5,2.6c0.5,0.3,1,0.1,1.6,0
									c2.2-0.8,4.4-1.6,6.6-2.4c-1.1,0.6-2.2,1.2-3,2.2c-0.9,1-1.5,2.5-1.2,3.9c0.3,1.6,1.7,2.5,3,2.4c1.3-0.1,2.6-1,3.7-2.1
									c1.2-1.1,2.3-2.6,2.4-4.5c0.1-1.8-1.7-3.4-2.8-2.1c2.5-1,5-2.6,7.2-4.5c0.8-0.7,1.6-1.5,2.1-2.6c0.5-1.1,0.7-2.4,0.3-3.4
									c-2.2-5.1-5.2,2.8-6.6,3.5C-494.9,221-497.8,217.3-501.2,219.3z"/>
								<path class="st2" d="M-511.9,242.3c-0.3,1-0.1,2.3,0.5,2.9c0.6,0.6,1.8,0.3,2.1-0.7c-1.5,0.7-3.1,1.4-4,3.1
									c-0.9,1.6-0.8,4.4,0.7,4.9c0.9,0.3,1.9-0.3,2.8-0.9c2.4-1.8,4.7-3.9,6.9-6.1c-0.7,2,0.8,4.1,2.5,4.1
									c1.6,0.1,3.2-1.1,4.6-2.3c1.8-1.4,3.8-3.6,3.4-6.1c-0.4-2.2-2.5-3-4.2-2.3s-3,2.6-4.2,4.3c1-1.8-0.3-4.2-1.9-4.4
									c-1.6-0.2-3.2,1.1-4.2,2.7c1.9-1.4,2.3-4.8-0.1-5C-508.7,236.2-511.5,240.5-511.9,242.3z"/>
								<path class="st2" d="M-461.4,231.7c-1.4-0.6-3.1,0.7-3.5,2.5c-0.4,1.9,0.6,3.9,2.1,4.1c-1.1,0.2-2.1,0.9-2.8,2
									c-0.4,0.6-0.7,1.4-0.6,2.1c0.1,1.1,1,1.8,1.9,1.8c0.9,0,1.8-0.6,2.6-1.1c-0.9,0.2-1.8,0.3-2.5,1.1s-1,2.2-0.4,3
									c0.5,0.6,1.4,0.5,2.1,0.2c1.6-0.7,3.1-1.8,4.4-3.4c0.9,1.2,2.2,2.1,3.6,1.7c1.4-0.4,2.5-2.3,2.1-3.9
									c-0.3-1.2-1.2-1.9-2.2-1.9c-1-0.1-1.9,0.3-2.9,0.7c1-0.9,2-1.9,2.4-3.4c0.4-1.4-0.3-3.3-1.5-3.1c-1.3,0.2-2,2.5-3.1,3.4
									C-461,236.1-458.6,232.8-461.4,231.7z"/>
								<g>
									<path class="st2" d="M-484.8,226.2c-1.5,1.4-2.1,3.9-2,6.2c0.1,2.5,0.9,5.2,2.7,6.1c2.4,1.2,5.4-1.5,5.9-4.8
										c0.5-3.3-1.1-6.5-3.4-7.9C-481.6,225.7-483.2,224.8-484.8,226.2z"/>
								</g>
								<g>
									<path class="st2" d="M-468,222.4c0.2,0.2,0.4,0.4,0.6,0.6c-1-1.6-3.1-1.7-4.3-0.2c-1.2,1.5-1.3,4.2-0.1,5.6
										c1.2,1.3,3.3,1,4.4-0.7c1.7,0.9,4,0.4,5.2-1.6c1.2-1.9,1-5.2-0.6-6.3c-1.6-1.1-4.2,0.9-4,3.3c-0.2-0.3-0.5-0.6-0.7-1
										L-468,222.4z"/>
								</g>
								<g>
									<path class="st2" d="M-449.7,225.1c-1.2,1.6-2.5,3.2-2.9,5.3s0.2,4.6,1.8,5c1.6,0.4,3.1-1.4,4.1-3.2
										c0.9-1.6,1.5-3.6,1.1-5.4c-0.4-1.8-2.4-2.7-3.5-1.3L-449.7,225.1z"/>
								</g>
								<path class="st2" d="M-476,214.4c-0.6-1.7-2.5-2.2-3.7-1.1c-1.3,1.1-1.8,3.3-1.3,5s1.9,2.8,3.3,2.9c1.8,0.1,4-1.9,3.6-4.1
									c0.8,1.3,2.1,1.7,3.4,1.5c1.3-0.2,2.5-1.1,3.6-1.9c1.5-1.2,3.2-3,3.1-5.2c-0.1-1.8-1.4-3-2.8-3.1c-1.4-0.1-2.8,0.8-3.9,2
									c-0.9,1-1.6,2.1-2.5,3c-0.9,0.9-2.2,1.4-3.1,0.7L-476,214.4z"/>
							</g>
						</g>
					</g>
				</g>
			</g>
		</g>
	</g>
</g>
<g id="Keyboard">
	<g>
		<g>
			<rect x="-405.4" y="276.3" class="st8" width="230.7" height="97.1"/>
			<g>
				<rect x="-400.6" y="282.2" class="st5" width="21.7" height="12"/>
				<rect x="-214.3" y="340.8" class="st5" width="34.2" height="12"/>
				<rect x="-201.2" y="297.2" class="st5" width="21.1" height="12"/>
				<rect x="-400.6" y="326" class="st5" width="21.7" height="12"/>
				<rect x="-400.6" y="311.5" class="st5" width="17.6" height="12"/>
				<g>
					<rect x="-400.6" y="296.8" class="st5" width="12" height="12"/>
					<rect x="-385.3" y="296.8" class="st5" width="12" height="12"/>
					<rect x="-369.9" y="296.8" class="st5" width="12" height="12"/>
					<rect x="-354.6" y="296.8" class="st5" width="12" height="12"/>
					<rect x="-339.3" y="296.8" class="st5" width="12" height="12"/>
					<rect x="-323.9" y="296.8" class="st5" width="12" height="12"/>
					<rect x="-308.6" y="296.8" class="st5" width="12" height="12"/>
					<rect x="-293.3" y="296.8" class="st5" width="12" height="12"/>
					<rect x="-277.9" y="296.8" class="st5" width="12" height="12"/>
					<rect x="-262.6" y="296.8" class="st5" width="12" height="12"/>
					<rect x="-247.3" y="296.8" class="st5" width="12" height="12"/>
					<rect x="-231.9" y="296.8" class="st5" width="12" height="12"/>
					<rect x="-216.6" y="296.8" class="st5" width="12" height="12"/>
				</g>
				<g>
					<rect x="-400.6" y="355.6" class="st5" width="12" height="12"/>
					<rect x="-385.3" y="355.6" class="st5" width="12" height="12"/>
					<rect x="-369.9" y="355.6" class="st5" width="12" height="12"/>
					<rect x="-354.6" y="355.6" class="st5" width="14.7" height="12"/>
					<rect x="-336.6" y="355.6" class="st5" width="73.3" height="12"/>
					<rect x="-238.6" y="355.6" class="st5" width="12" height="12"/>
					<rect x="-223.3" y="355.6" class="st5" width="12" height="12"/>
					<rect x="-207.9" y="355.6" class="st5" width="12" height="12"/>
					<rect x="-260.3" y="355.6" class="st5" width="18.7" height="12"/>
					<rect x="-192.1" y="355.6" class="st5" width="12" height="12"/>
				</g>
				<g>
					<rect x="-379.6" y="311.5" class="st5" width="12" height="12"/>
					<rect x="-364.3" y="311.5" class="st5" width="12" height="12"/>
					<rect x="-349" y="311.5" class="st5" width="12" height="12"/>
					<rect x="-333.6" y="311.5" class="st5" width="12" height="12"/>
					<rect x="-318.3" y="311.5" class="st5" width="12" height="12"/>
					<rect x="-303" y="311.5" class="st5" width="12" height="12"/>
					<rect x="-287.6" y="311.5" class="st5" width="12" height="12"/>
					<rect x="-272.3" y="311.5" class="st5" width="12" height="12"/>
					<rect x="-257" y="311.5" class="st5" width="12" height="12"/>
					<rect x="-241.6" y="311.5" class="st5" width="12" height="12"/>
					<rect x="-226.3" y="311.5" class="st5" width="12" height="12"/>
					<rect x="-211" y="311.5" class="st5" width="12" height="12"/>
					<polygon class="st5" points="-180.1,311.5 -180.1,338.1 -192.1,338.1 -192.1,323.5 -195.6,323.5 -195.6,311.5 					"/>
				</g>
				<g>
					<rect x="-376.1" y="326.1" class="st5" width="12" height="12"/>
					<rect x="-360.8" y="326.1" class="st5" width="12" height="12"/>
					<rect x="-345.5" y="326.1" class="st5" width="12" height="12"/>
					<rect x="-330.1" y="326.1" class="st5" width="12" height="12"/>
					<rect x="-314.8" y="326.1" class="st5" width="12" height="12"/>
					<rect x="-299.5" y="326.1" class="st5" width="12" height="12"/>
					<rect x="-284.1" y="326.1" class="st5" width="12" height="12"/>
					<rect x="-268.8" y="326.1" class="st5" width="12" height="12"/>
					<rect x="-253.5" y="326.1" class="st5" width="12" height="12"/>
					<rect x="-238.1" y="326.1" class="st5" width="12" height="12"/>
					<rect x="-222.8" y="326.1" class="st5" width="12" height="12"/>
					<rect x="-207.5" y="326.1" class="st5" width="12" height="12"/>
				</g>
				<g>
					<rect x="-382.6" y="340.8" class="st5" width="12" height="12"/>
					<rect x="-367.3" y="340.8" class="st5" width="12" height="12"/>
					<rect x="-352" y="340.8" class="st5" width="12" height="12"/>
					<rect x="-336.6" y="340.8" class="st5" width="12" height="12"/>
					<rect x="-321.3" y="340.8" class="st5" width="12" height="12"/>
					<rect x="-306" y="340.8" class="st5" width="12" height="12"/>
					<rect x="-290.6" y="340.8" class="st5" width="12" height="12"/>
					<rect x="-275.3" y="340.8" class="st5" width="12" height="12"/>
					<rect x="-260" y="340.8" class="st5" width="12" height="12"/>
					<rect x="-244.6" y="340.8" class="st5" width="12" height="12"/>
					<rect x="-229.3" y="340.8" class="st5" width="12" height="12"/>
				</g>
				<g>
					<rect x="-376.1" y="282.9" class="st5" width="12" height="12"/>
					<rect x="-360.8" y="282.9" class="st5" width="12" height="12"/>
					<rect x="-345.5" y="282.9" class="st5" width="12" height="12"/>
					<rect x="-330.1" y="282.9" class="st5" width="12" height="12"/>
					<rect x="-314.8" y="282.9" class="st5" width="12" height="12"/>
					<rect x="-299.5" y="282.9" class="st5" width="12" height="12"/>
					<rect x="-284.1" y="282.9" class="st5" width="12" height="12"/>
					<rect x="-268.8" y="282.9" class="st5" width="12" height="12"/>
					<rect x="-253.5" y="282.9" class="st5" width="12" height="12"/>
					<rect x="-238.1" y="282.9" class="st5" width="12" height="12"/>
					<rect x="-222.8" y="282.9" class="st5" width="12" height="12"/>
					<rect x="-207.5" y="282.9" class="st5" width="12" height="12"/>
					<rect x="-192.1" y="282.9" class="st5" width="12" height="12"/>
				</g>
				<rect x="-400.6" y="340.8" class="st5" width="14.6" height="12"/>
			</g>
		</g>
		<polygon class="st9" points="-405.4,276.9 -400.6,275.3 -177.9,275.3 -174.7,276.9 		"/>
	</g>
</g>
<g id="Hands">
	<g>
		<path class="st4" d="M-240.8,443.6l-4.7-28.2c-1-4.2-3.2-8-6.4-11.1c-9.3-9-21.7-18.2-22.2-30c-0.8-18-3.6-17.5-3.3-21.9
			c0-0.2,1.4-2.1,3.2-6.6c0.6-1.4,1-3.6,1.4-5.3c0.4-1.9,2.2-3.1,4-2.9c1.3,0.2,2.5,0.7,3.4,1.6c1.7,1.7,2.5,4.1,2.5,6.5
			c0.1,2.4-0.5,4.7-1,7.1c1.7,3.8,2.5,8.3,3,12.4c1.1-3.3,1.9-6.6,3-9.9c0.2-0.1,0.1-0.4,0.4-0.5c-1.5-3.2-0.2-3.1-3.2-10.2
			c-5-12-10.6-23.6-14.6-38.6c-0.3-1.2-0.3-3.1,0.1-4.2c1.5-4.3,5.9-3.3,7.8-0.8c0.5,0.7,0.9,1.4,1.2,2.2c2,5.4,6.4,13.6,9.6,18.5
			l10.9,16.6c0,0,3.8-3.1,4.4-4.5l0,0c0.6-1.4,0.9-12.7,0.9-12.7s-0.9,2.1-2.8,2c-1.4-0.1-4.2,0.7-6.2-1.5c-1.6-1.8-1.6-4.6-0.2-6.5
			l4.9-6.7c0,0,3.3-2.9,7.7-0.9c4.4,2,8.7,6.1,8.7,6.1s4.1-0.2,7.6,1.5c3.5,1.7,7.1,6.5,7.1,6.5s4.1,0.2,5.9,1.6
			c0.5,0.3,6.7,10,4.4,17.5c-1.3,4.5-2.1,11-2.8,12.8l-3,44.1l6.1,29l-13.1,7.3c-4.8,2.7-9.9,5-15.1,6.8L-240.8,443.6z"/>
		<g>
			<g>
				<g>
					<g>
						<g>
							<g>
								<path id="XMLID_2_" class="st2" d="M-203.4,392l0.1-44.2c0.5-1.8,0.9-8.3,1.9-12.9c1.7-7.7-5.1-16.9-5.6-17.2
									c-1.9-1.2-6-1.2-6-1.2s-4-4.6-7.6-6c-3.6-1.4-7.7-1-7.7-1s-4.5-3.8-9.1-5.5c-4.5-1.7-7.7,1.4-7.7,1.4l-4.5,7
									c-1.3,2.1-1.1,4.8,0.6,6.5c2.1,2.1,4.9,1.1,6.3,1.1c1.9,0,2.6-2.2,2.6-2.2s0.5,11.3,0,12.7l0,0c-0.5,1.4-4.1,4.8-4.1,4.8
									l-12-15.8c-3.5-4.6-8.4-12.6-10.8-17.8c-0.4-0.8-0.8-1.5-1.3-2.1c-2.1-2.4-6.6-3.1-7.8,1.3c-0.3,1.2-0.2,3.1,0.2,4.2
									c5,14.8,11.4,25.9,17.2,37.6c3.5,6.9,2.2,6.8,3.9,10c-0.2,0.1-0.1,0.4-0.3,0.5c-0.8,3.4-1.4,6.7-2.3,10.1
									c-0.8-4-1.9-8.5-3.8-12.2c0.4-2.4,0.8-4.7,0.5-7.1c-0.2-2.4-1.1-4.8-3-6.3c-0.9-0.8-2.2-1.3-3.5-1.4
									c-1.9-0.1-3.6,1.2-3.8,3.1c-0.3,1.8-0.5,3.9-1,5.4c-1.5,4.6-2.8,6.6-2.8,6.8c0,4.5,2.8,3.7,4.8,21.7
									c1.6,14,19.6,23.2,29.4,33.3l10.4,32.9c12.1-4.9,23.7-11.1,34.9-18.3L-203.4,392z"/>
							</g>
							<g>
								<defs>
									<path id="SVGID_1_" d="M-203.4,392l0.1-44.2c0.5-1.8,0.9-8.3,1.9-12.9c1.7-7.7-5.1-16.9-5.6-17.2c-1.9-1.2-6-1.2-6-1.2
										s-4-4.6-7.6-6c-3.6-1.4-7.7-1-7.7-1s-4.5-3.8-9.1-5.5c-4.5-1.7-7.7,1.4-7.7,1.4l-4.5,7c-1.3,2.1-1.1,4.8,0.6,6.5
										c2.1,2.1,4.9,1.1,6.3,1.1c1.9,0,2.6-2.2,2.6-2.2s0.5,11.3,0,12.7l0,0c-0.5,1.4-4.1,4.8-4.1,4.8l-12-15.8
										c-3.5-4.6-8.4-12.6-10.8-17.8c-0.4-0.8-0.8-1.5-1.3-2.1c-2.1-2.4-6.6-3.1-7.8,1.3c-0.3,1.2-0.2,3.1,0.2,4.2
										c5,14.8,11.4,25.9,17.2,37.6c3.5,6.9,2.2,6.8,3.9,10c-0.2,0.1-0.1,0.4-0.3,0.5c-0.8,3.4-1.4,6.7-2.3,10.1
										c-0.8-4-1.9-8.5-3.8-12.2c0.4-2.4,0.8-4.7,0.5-7.1c-0.2-2.4-1.1-4.8-3-6.3c-0.9-0.8-2.2-1.3-3.5-1.4
										c-1.9-0.1-3.6,1.2-3.8,3.1c-0.3,1.8-0.5,3.9-1,5.4c-1.5,4.6-2.8,6.6-2.8,6.8c0,4.5,2.8,3.7,4.8,21.7
										c1.6,14,19.6,23.2,29.4,33.3l10.4,32.9c12.1-4.9,23.7-11.1,34.9-18.3L-203.4,392z"/>
								</defs>
								<clipPath id="SVGID_2_">
									<use xlink:href="#SVGID_1_"  style="overflow:visible;"/>
								</clipPath>
								<g class="st10">
									<g>
										<path class="st0" d="M-208.6,332c0.5-1.3,1.2-2.6,2.3-3.5s2.9-0.9,3.8,0.1c-0.7-2.3-1.5-4.6-2.4-6.8
											c-0.6-1.7-1.4-3.5-2.8-4.7c-1.4-1.2-3.8-1.4-5,0c0.9,5.2,1,10.6,0.3,15.8c-0.4,2.8-0.8,6.1,1.1,8.2
											c0.5,0.4,1.4-0.3,1.1-0.9c-0.2-0.3-0.7-0.3-1-0.3C-210.5,337.2-209.6,334.6-208.6,332z"/>
										<path class="st0" d="M-208.6,332c0.5-1.3,1.2-2.6,2.3-3.5s2.9-0.9,3.8,0.1c-0.7-2.3-1.5-4.6-2.4-6.8
											c-0.6-1.7-1.4-3.5-2.8-4.7c-1.4-1.2-3.8-1.4-5,0c0.9,5.2,1,10.6,0.3,15.8c-0.4,2.8-0.8,6.1,1.1,8.2
											c0.5,0.4,1.4-0.3,1.1-0.9c-0.2-0.3-0.7-0.3-1-0.3C-210.5,337.2-209.6,334.6-208.6,332z"/>
										<path class="st11" d="M-208.6,332c0.5-1.3,1.2-2.6,2.3-3.5s2.9-0.9,3.8,0.1c-0.7-2.3-1.5-4.6-2.4-6.8
											c-0.6-1.7-1.4-3.5-2.8-4.7c-1.4-1.2-3.8-1.4-5,0c0.9,5.2,1,10.6,0.3,15.8c-0.4,2.8-0.8,6.1,1.1,8.2
											c0.5,0.4,1.4-0.3,1.1-0.9c-0.2-0.3-0.7-0.3-1-0.3C-210.5,337.2-209.6,334.6-208.6,332z"/>
									</g>
									<g>
										<path class="st0" d="M-224.5,327.2c0.1,1.9,0.1,3.9,0.5,5.7c0.5,1.9,1.5,3.7,3.2,4.6c-1-3.7-0.5-7.7,0.1-11.5
											c0.3-2.3,0.7-4.6,1-7c0.1-0.8,0.2-1.6,0.7-2.3s1.4-1.1,2.1-0.8c-1,0.6-2.3-0.2-2.9-1.2s-0.8-2.2-1.5-3.1
											c-1.3-1.7-4.2-2.1-6.2-1.6C-226.9,315.9-224.8,321.3-224.5,327.2z"/>
										<g>
											<path class="st0" d="M-224.5,327.2c0.1,1.9,0.1,3.9,0.5,5.7c0.5,1.9,1.5,3.7,3.2,4.6c-1-3.7-0.5-7.7,0.1-11.5
												c0.3-2.3,0.7-4.6,1-7c0.1-0.8,0.2-1.6,0.7-2.3s1.4-1.1,2.1-0.8c-1,0.6-2.3-0.2-2.9-1.2s-0.8-2.2-1.5-3.1
												c-1.3-1.7-4.2-2.1-6.2-1.6C-226.9,315.9-224.8,321.3-224.5,327.2z"/>
										</g>
										<g class="st12">
											<path class="st2" d="M-224.5,327.2c0.1,1.9,0.1,3.9,0.5,5.7c0.5,1.9,1.5,3.7,3.2,4.6c-1-3.7-0.5-7.7,0.1-11.5
												c0.3-2.3,0.7-4.6,1-7c0.1-0.8,0.2-1.6,0.7-2.3s1.4-1.1,2.1-0.8c-1,0.6-2.3-0.2-2.9-1.2s-0.8-2.2-1.5-3.1
												c-1.3-1.7-4.2-2.1-6.2-1.6C-226.9,315.9-224.8,321.3-224.5,327.2z"/>
										</g>
									</g>
									<g>
										<g>
											<path class="st0" d="M-240.9,311.8c-0.6-0.5-0.9-1.3-1.1-2.1c-0.2-0.8-0.5-1.6-1.2-2c-3.1,1.9-1.4,7.7-4.5,9.6
												c-0.6,0.4-1.4,0.6-1.7,1.2c-0.3,0.6-0.1,1.3,0.3,1.8s1.1,0.7,1.7,0.8c2.5,0.4,5.1-0.8,6.5-2.8c1.2-1.7,2.1-4.4,1.5-6.4
												C-239.7,312.1-240.4,312.2-240.9,311.8z"/>
											<path class="st0" d="M-272.8,349.2c-0.1,0.2-0.1,0.5,0.1,0.6c0.3,0.2,0.6-0.1,0.8-0.4c1.3-1.8,3.8-2.7,6-1.9
												c0.8,0,1.1-1.2,0.6-1.9c-0.5-0.6-1.4-0.7-2.2-0.7c-0.8,0-1.7,0-2.4-0.4c-0.8-0.5-1.2-1.6-1-2.5
												C-271.5,344.4-272.2,346.8-272.8,349.2z"/>
										</g>
										<g class="st12">
											<path class="st2" d="M-240.9,311.8c-0.6-0.5-0.9-1.3-1.1-2.1c-0.2-0.8-0.5-1.6-1.2-2c-3.1,1.9-1.4,7.7-4.5,9.6
												c-0.6,0.4-1.4,0.6-1.7,1.2c-0.3,0.6-0.1,1.3,0.3,1.8s1.1,0.7,1.7,0.8c2.5,0.4,5.1-0.8,6.5-2.8c1.2-1.7,2.1-4.4,1.5-6.4
												C-239.7,312.1-240.4,312.2-240.9,311.8z"/>
											<path class="st2" d="M-272.8,349.2c-0.1,0.2-0.1,0.5,0.1,0.6c0.3,0.2,0.6-0.1,0.8-0.4c1.3-1.8,3.8-2.7,6-1.9
												c0.8,0,1.1-1.2,0.6-1.9c-0.5-0.6-1.4-0.7-2.2-0.7c-0.8,0-1.7,0-2.4-0.4c-0.8-0.5-1.2-1.6-1-2.5
												C-271.5,344.4-272.2,346.8-272.8,349.2z"/>
										</g>
									</g>
									<g>
										<path class="st0" d="M-232.1,311.1c-1.7-0.2-3.6-0.3-5.1-1.2c-1.9-1.1-3.2-3.5-5.4-3.6c-2-0.1-3.4,1.7-4.5,3.3
											c-0.1-2.4,1.7-4.7,3.9-5.6s4.9-0.6,7.2,0.3c2.3,0.9,4.3,2.4,6.2,3.9c0.8,0.6,1.6,1.2,2.1,2
											C-225.3,314.1-230.5,311.3-232.1,311.1z"/>
										<path class="st11" d="M-232.1,311.1c-1.7-0.2-3.6-0.3-5.1-1.2c-1.9-1.1-3.2-3.5-5.4-3.6c-2-0.1-3.4,1.7-4.5,3.3
											c-0.1-2.4,1.7-4.7,3.9-5.6s4.9-0.6,7.2,0.3c2.3,0.9,4.3,2.4,6.2,3.9c0.8,0.6,1.6,1.2,2.1,2
											C-225.3,314.1-230.5,311.3-232.1,311.1z"/>
									</g>
								</g>
							</g>
							<g>
								<defs>
									<path id="SVGID_3_" d="M-203.4,392l0.1-44.2c0.5-1.8,0.9-8.3,1.9-12.9c1.7-7.7-5.1-16.9-5.6-17.2c-1.9-1.2-6-1.2-6-1.2
										s-4-4.6-7.6-6c-3.6-1.4-7.7-1-7.7-1s-4.5-3.8-9.1-5.5c-4.5-1.7-7.7,1.4-7.7,1.4l-4.5,7c-1.3,2.1-1.1,4.8,0.6,6.5
										c2.1,2.1,4.9,1.1,6.3,1.1c1.9,0,2.6-2.2,2.6-2.2s0.5,11.3,0,12.7l0,0c-0.5,1.4-4.1,4.8-4.1,4.8l-12-15.8
										c-3.5-4.6-8.4-12.6-10.8-17.8c-0.4-0.8-0.8-1.5-1.3-2.1c-2.1-2.4-6.6-3.1-7.8,1.3c-0.3,1.2-0.2,3.1,0.2,4.2
										c5,14.8,11.4,25.9,17.2,37.6c3.5,6.9,2.2,6.8,3.9,10c-0.2,0.1-0.1,0.4-0.3,0.5c-0.8,3.4-1.4,6.7-2.3,10.1
										c-0.8-4-1.9-8.5-3.8-12.2c0.4-2.4,0.8-4.7,0.5-7.1c-0.2-2.4-1.1-4.8-3-6.3c-0.9-0.8-2.2-1.3-3.5-1.4
										c-1.9-0.1-3.6,1.2-3.8,3.1c-0.3,1.8-0.5,3.9-1,5.4c-1.5,4.6-2.8,6.6-2.8,6.8c0,4.5,2.8,3.7,4.8,21.7
										c1.6,14,19.6,23.2,29.4,33.3l10.4,32.9c12.1-4.9,23.7-11.1,34.9-18.3L-203.4,392z"/>
								</defs>
								<clipPath id="SVGID_4_">
									<use xlink:href="#SVGID_3_"  style="overflow:visible;"/>
								</clipPath>
								<g class="st13">
									<path class="st0" d="M-263.3,367.9c0.1-0.2,0.2-0.4,0.3-0.7C-263.2,367.3-263.4,367.6-263.3,367.9z"/>
									<path class="st0" d="M-260.4,352.4c-0.2-2.5,0.2-4.9,0.1-7.4c-0.1-2.5-0.7-5.1-2.5-6.8c-2.6-2.4-9.6-1.2-7.3,3.4
										c0.7,1.3,2.4,1.9,3.7,1.4c1.3-0.6,2-2.4,1.2-3.6c2.9,4.3,2.6,10.5-0.6,14.6c3.7,3.2,4.8,8.9,2.8,13.3
										c0.4-0.3,1.2-0.4,1.6,0c0.7,0.5,0.9,1.5,1.3,2.3s1,1.6,1.9,1.6c1.2-2.9,0.8-6.3,0-9.4C-259,358.6-260.1,355.5-260.4,352.4z
										"/>
									<path class="st0" d="M-234.5,306c-1.4-1.1-3-1.8-4.7-2L-234.5,306z"/>
									<path class="st0" d="M-222.7,337.3c-0.4-1.7-1.2-3.3-1.6-5c-1.1-3.9-0.4-8.1-0.9-12.1c-0.6-5.2-3.4-10.1-7.4-13.5l-1.8-0.8
										c1.7,1.3,3,3.2,3.6,5.2c1.4,4.8,1.8,9.8,2.4,14.7c0.9,7.6,2.3,15.2,4.2,22.6C-223.1,344.9-221.9,341-222.7,337.3z"/>
									<path class="st0" d="M-241.8,319.5c1.2-1,1.9-2.5,2.1-4.1c0.2-1.4,0.1-2.8-0.1-4.2c-0.1,0.6-0.9,1.1-1.6,0.9
										c-0.9-0.2-1.4-1-1.9-1.7c-0.1,0.4-0.2,0.8-0.4,1.3c0-0.2-0.1-0.5-0.1-0.7l-0.5,0.6c0.7,2,1.4,4.3,0.3,6.2
										c-0.5,0.9-1.4,1.5-2.3,2.1C-244.9,320.7-243,320.5-241.8,319.5z"/>
									<path class="st0" d="M-239.8,310.7c0,0.2,0,0.3,0.1,0.5C-239.7,311-239.8,310.8-239.8,310.7z"/>
									<path class="st0" d="M-245.1,330.9c-3.5-6.9-7-13.8-10.9-20.5c-2.3-3.9-4.6-7.8-7.6-11.2c-1.3-1.5-5.2-5-7.3-2.7
										c-1.4,1.5,0.4,4.3-1.3,5.9c0.4,0,2.4-0.2,2.6,0.1c4.4,5.4,6.8,12.4,6.7,19.4c1.4-1.1,3.3,0.4,4.4,1.8
										c6.8,8.7,13.1,17.8,19,27.1c-1.1-4.1-1.2-8.5-2.4-12.6C-242.6,335.7-243.8,333.3-245.1,330.9z"/>
									<path class="st0" d="M-204.3,347.7c1.7-4.5,3-9.1,3.1-13.8c0.1-4.3-0.9-8.8-3.1-12.5c-0.6-0.9-3-4.8-4.3-4.5
										c-2.3,0.6,0.7,4.6,1.3,5.7c2,3.8,4.1,7.9,4,12.3c-0.1,3.4-1.5,6.5-2.6,9.7c-0.8,2.2-1.4,4.6-1.4,6.9
										c-0.2,0.3-0.3,0.5-0.5,0.8c-1.6,2-3.7,3.7-6.3,4.1c1-3,1.9-6,2.9-9c0.3-1.1,0.5-2.5-0.1-3.3c0.2-0.4,0.3-0.8,0.3-1.3
										c0-0.8-0.5-1.6-0.8-2.3c-1.3-2.9-0.9-6.2-0.6-9.4c0.4-3.9,0.6-7.9-0.6-11.7c-1.1-3.7-3.8-7.2-7.5-8.5c0.3,0.3,0.6,0.7,1,1
										l-1.3-0.9c0.8,1.6,1.6,3.2,2.3,4.9c-0.3,0.4-0.6,0.8-0.9,1.2c1.3-0.7,2.9,0.3,3.5,1.6c0.6,1.3,0.4,2.9,0.3,4.3
										c-0.8,8.1-0.4,16.3,1.2,24.3c-0.1,1.9-0.5,3.7-1.4,5.3c-1,1.7-3,3-5,2.7c0.4-1.9-0.3-4.2-1.9-5.3c-2,2.8-0.8,7.1-0.5,10.3
										c0.5,4.8,1.2,9.6,2.3,14.4c0.3-4.1,1.2-8.2,2.6-12c1.1,3.9,2.2,7.9,3.3,11.8c0-1.1,0.1-2.3,0.6-3.2s1.7-1.7,2.8-1.3
										c0.8,0.3,1.3,1.2,1.7,2.1c2.8,6.8,3.5,14.4,2,21.6c1.3,0.7,3.1-0.2,3.9-1.5c0.7-1.3,0.7-3,0.7-4.5
										C-203.9,374.4-204.1,361-204.3,347.7z"/>
									<path class="st0" d="M-238.2,351.9c-0.6,1.1,2,5.6,2.4,6.6c2.2,5.4,4.4,10.8,6.6,16.1c-0.7-7.1-2.5-14.1-5.1-20.7
										C-234.8,352.9-237,349.7-238.2,351.9z"/>
									<path class="st0" d="M-234.8,323.4c-0.4,0.6-0.9,1.3-1.6,1.1c-0.6-0.2-0.7-1-0.7-1.6c0.1-3.7,0.1-7.5,0.2-11.2
										c-3,2.2-2.6,5-2.8,8.2c-0.1,1.9,0.4,10.8-0.9,11.9c3-2.5,5.5-5.6,7.4-9.1C-233.7,322.3-234.4,322.8-234.8,323.4z"/>
									<g class="st12">
										<path class="st2" d="M-263.3,367.9c0.1-0.2,0.2-0.4,0.3-0.7C-263.2,367.3-263.4,367.6-263.3,367.9z"/>
										<path class="st2" d="M-260.4,352.4c-0.2-2.5,0.2-4.9,0.1-7.4c-0.1-2.5-0.7-5.1-2.5-6.8c-2.6-2.4-9.6-1.2-7.3,3.4
											c0.7,1.3,2.4,1.9,3.7,1.4c1.3-0.6,2-2.4,1.2-3.6c2.9,4.3,2.6,10.5-0.6,14.6c3.7,3.2,4.8,8.9,2.8,13.3
											c0.4-0.3,1.2-0.4,1.6,0c0.7,0.5,0.9,1.5,1.3,2.3s1,1.6,1.9,1.6c1.2-2.9,0.8-6.3,0-9.4C-259,358.6-260.1,355.5-260.4,352.4
											z"/>
										<path class="st2" d="M-234.5,306c-1.4-1.1-3-1.8-4.7-2L-234.5,306z"/>
										<path class="st2" d="M-222.7,337.3c-0.4-1.7-1.2-3.3-1.6-5c-1.1-3.9-0.4-8.1-0.9-12.1c-0.6-5.2-3.4-10.1-7.4-13.5
											l-1.8-0.8c1.7,1.3,3,3.2,3.6,5.2c1.4,4.8,1.8,9.8,2.4,14.7c0.9,7.6,2.3,15.2,4.2,22.6C-223.1,344.9-221.9,341-222.7,337.3
											z"/>
										<path class="st2" d="M-241.8,319.5c1.2-1,1.9-2.5,2.1-4.1c0.2-1.4,0.1-2.8-0.1-4.2c-0.1,0.6-0.9,1.1-1.6,0.9
											c-0.9-0.2-1.4-1-1.9-1.7c-0.1,0.4-0.2,0.8-0.4,1.3c0-0.2-0.1-0.5-0.1-0.7l-0.5,0.6c0.7,2,1.4,4.3,0.3,6.2
											c-0.5,0.9-1.4,1.5-2.3,2.1C-244.9,320.7-243,320.5-241.8,319.5z"/>
										<path class="st2" d="M-239.8,310.7c0,0.2,0,0.3,0.1,0.5C-239.7,311-239.8,310.8-239.8,310.7z"/>
										<path class="st2" d="M-245.1,330.9c-3.5-6.9-7-13.8-10.9-20.5c-2.3-3.9-4.6-7.8-7.6-11.2c-1.3-1.5-5.2-5-7.3-2.7
											c-1.4,1.5,0.4,4.3-1.3,5.9c0.4,0,2.4-0.2,2.6,0.1c4.4,5.4,6.8,12.4,6.7,19.4c1.4-1.1,3.3,0.4,4.4,1.8
											c6.8,8.7,13.1,17.8,19,27.1c-1.1-4.1-1.2-8.5-2.4-12.6C-242.6,335.7-243.8,333.3-245.1,330.9z"/>
										<path class="st2" d="M-204.3,347.7c1.7-4.5,3-9.1,3.1-13.8c0.1-4.3-0.9-8.8-3.1-12.5c-0.6-0.9-3-4.8-4.3-4.5
											c-2.3,0.6,0.7,4.6,1.3,5.7c2,3.8,4.1,7.9,4,12.3c-0.1,3.4-1.5,6.5-2.6,9.7c-0.8,2.2-1.4,4.6-1.4,6.9
											c-0.2,0.3-0.3,0.5-0.5,0.8c-1.6,2-3.7,3.7-6.3,4.1c1-3,1.9-6,2.9-9c0.3-1.1,0.5-2.5-0.1-3.3c0.2-0.4,0.3-0.8,0.3-1.3
											c0-0.8-0.5-1.6-0.8-2.3c-1.3-2.9-0.9-6.2-0.6-9.4c0.4-3.9,0.6-7.9-0.6-11.7c-1.1-3.7-3.8-7.2-7.5-8.5c0.3,0.3,0.6,0.7,1,1
											l-1.3-0.9c0.8,1.6,1.6,3.2,2.3,4.9c-0.3,0.4-0.6,0.8-0.9,1.2c1.3-0.7,2.9,0.3,3.5,1.6c0.6,1.3,0.4,2.9,0.3,4.3
											c-0.8,8.1-0.4,16.3,1.2,24.3c-0.1,1.9-0.5,3.7-1.4,5.3c-1,1.7-3,3-5,2.7c0.4-1.9-0.3-4.2-1.9-5.3c-2,2.8-0.8,7.1-0.5,10.3
											c0.5,4.8,1.2,9.6,2.3,14.4c0.3-4.1,1.2-8.2,2.6-12c1.1,3.9,2.2,7.9,3.3,11.8c0-1.1,0.1-2.3,0.6-3.2s1.7-1.7,2.8-1.3
											c0.8,0.3,1.3,1.2,1.7,2.1c2.8,6.8,3.5,14.4,2,21.6c1.3,0.7,3.1-0.2,3.9-1.5c0.7-1.3,0.7-3,0.7-4.5
											C-203.9,374.4-204.1,361-204.3,347.7z"/>
										<path class="st2" d="M-238.2,351.9c-0.6,1.1,2,5.6,2.4,6.6c2.2,5.4,4.4,10.8,6.6,16.1c-0.7-7.1-2.5-14.1-5.1-20.7
											C-234.8,352.9-237,349.7-238.2,351.9z"/>
										<path class="st2" d="M-234.8,323.4c-0.4,0.6-0.9,1.3-1.6,1.1c-0.6-0.2-0.7-1-0.7-1.6c0.1-3.7,0.1-7.5,0.2-11.2
											c-3,2.2-2.6,5-2.8,8.2c-0.1,1.9,0.4,10.8-0.9,11.9c3-2.5,5.5-5.6,7.4-9.1C-233.7,322.3-234.4,322.8-234.8,323.4z"/>
									</g>
								</g>
							</g>
						</g>
						<g>
							<g>
								<g>
									<path class="st14" d="M-227.2,311.2c1.8,6.5,2.7,13.3,2.7,20c0,1.1,0,2.3,0.4,3.4c0.4,1.1,1.2,2.1,2.3,2.3"/>
									<path class="st14" d="M-213,317.7c3,6.3-0.1,20.2,0.2,21.2c0.2,1,0.8,1.9,1.7,2.4"/>
									<g>
										<path class="st14" d="M-238.8,310.3c-0.3,2-0.6,4.3-1,6.3c-2.3-2-3.8-4.9-4-8"/>
										<path class="st14" d="M-257.9,363.7c-0.7,0.3-1.4,0.6-2.2,1"/>
										<path class="st14" d="M-257.4,365.4c-0.4,1.7-0.4,3.4,0,5.1"/>
										<path class="st14" d="M-244.8,346.7c0.8,1.4,1.6,2.9,2.4,4.3"/>
										<path class="st14" d="M-240.2,330.9c0.8-1.1,1.6-2.2,2.4-3.4"/>
										<path class="st14" d="M-206.7,346.7c-0.2,0.9-0.5,1.8-0.7,2.6"/>
										<path class="st14" d="M-212.5,339.5c0.7-2.2,1.4-4.5,2.1-6.7"/>
										<path class="st14" d="M-205.5,327.6c1.2-0.7,3-0.2,3.6,1.1"/>
										<path class="st14" d="M-219.8,316.1c1.7-0.5,3.5,0,4.8,1.1"/>
										<path class="st14" d="M-264.4,322.8c1.5-1.7,3.9-2.6,6.2-2.3"/>
									</g>
								</g>
								<path class="st14" d="M-273.4,303.9c1.4-1,3.3-1.5,5-1.2"/>
								<path class="st2" d="M-271.5,348.7c-1.2,0.9-2.2,2-2.9,3.3L-271.5,348.7z"/>
							</g>
							<path class="st14" d="M-270.6,344.1c1.6-1.1,4.1,1.4,5.6,0.1c0.6-0.5,0.6-1.4,0.5-2.2c-0.1-0.8-0.4-1.5-0.3-2.3"/>
						</g>
					</g>
				</g>
				<path class="st14" d="M-226,337.2c1.9,3.9,2.3,8.6,1.1,12.8"/>
				<path class="st14" d="M-214.4,343.3c0.3,1.9,0,3.9-1,5.5"/>
			</g>
		</g>
		<g>
			<g>
				<g>
					<g>
						<g>
							<path class="st15" d="M-230,439.7l-10.4-32.9c-9.8-10.1-27.8-19.3-29.4-33.3c-2-17.9-4.8-17.2-4.8-21.7
								c0-0.2,1.3-2.2,2.8-6.8c0.5-1.5,0.7-3.6,1-5.4c0.3-1.9,1.9-3.3,3.8-3.1c1.3,0.1,2.5,0.6,3.5,1.4c1.8,1.5,2.7,3.9,3,6.3
								c0.2,2.4-0.1,4.8-0.5,7.1c1.9,3.6,3,8.1,3.8,12.2c0.8-3.4,1.4-6.7,2.3-10.1c0.2-0.1,0.1-0.4,0.3-0.5c-1.7-3.1-0.4-3-3.9-10
								c-5.8-11.6-12.2-22.8-17.2-37.6c-0.4-1.1-0.5-3.1-0.2-4.2c1.2-4.4,5.7-3.7,7.8-1.3c0.6,0.6,1,1.3,1.3,2.1
								c2.4,5.2,7.3,13.2,10.8,17.8l12,15.8c0,0,3.6-3.3,4.1-4.8l0,0c0.5-1.4,0-12.7,0-12.7s-0.7,2.2-2.6,2.2c-1.4,0-4.1,1-6.3-1.1
								c-1.7-1.7-1.9-4.5-0.6-6.5l4.5-7c0,0,3.1-3.1,7.7-1.4c4.5,1.7,9.1,5.5,9.1,5.5s4.1-0.5,7.7,1c3.6,1.4,7.6,6,7.6,6
								s4.1,0,6,1.2c0.5,0.3,7.3,9.5,5.6,17.2c-1,4.6-1.4,11.1-1.9,12.9l-0.1,44.2l8.3,29.3"/>
						</g>
						<g>
							<g>
								<g>
									<path class="st15" d="M-227.2,311.2c1.8,6.5,2.7,13.3,2.7,20c0,1.1,0,2.3,0.4,3.4c0.4,1.1,1.2,2.1,2.3,2.3"/>
									<path class="st15" d="M-213,317.7c3,6.3-0.1,20.2,0.2,21.2c0.2,1,0.8,1.9,1.7,2.4"/>
									<g>
										<path class="st15" d="M-238.8,310.3c-0.3,2-0.6,4.3-1,6.3c-2.3-2-3.8-4.9-4-8"/>
										<path class="st15" d="M-257.9,363.7c-0.7,0.3-1.4,0.6-2.2,1"/>
										<path class="st15" d="M-257.4,365.4c-0.4,1.7-0.4,3.4,0,5.1"/>
										<path class="st15" d="M-244.8,346.7c0.8,1.4,1.6,2.9,2.4,4.3"/>
										<path class="st15" d="M-240.2,330.9c0.8-1.1,1.6-2.2,2.4-3.4"/>
										<path class="st15" d="M-206.7,346.7c-0.2,0.9-0.5,1.8-0.7,2.6"/>
										<path class="st15" d="M-212.5,339.5c0.7-2.2,1.4-4.5,2.1-6.7"/>
										<path class="st15" d="M-205.5,327.6c1.2-0.7,3-0.2,3.6,1.1"/>
										<path class="st15" d="M-219.8,316.1c1.7-0.5,3.5,0,4.8,1.1"/>
										<path class="st15" d="M-264.4,322.8c1.5-1.7,3.9-2.6,6.2-2.3"/>
									</g>
								</g>
								<path class="st15" d="M-273.4,303.9c1.4-1,3.3-1.5,5-1.2"/>
								<path class="st15" d="M-271.5,348.7c-1.2,0.9-2.2,2-2.9,3.3"/>
							</g>
							<path class="st15" d="M-270.6,344.1c1.6-1.1,4.1,1.4,5.6,0.1c0.6-0.5,0.6-1.4,0.5-2.2c-0.1-0.8-0.4-1.5-0.3-2.3"/>
						</g>
					</g>
				</g>
				<path class="st15" d="M-226,337.2c1.9,3.9,2.3,8.6,1.1,12.8"/>
				<path class="st15" d="M-214.4,343.3c0.3,1.9,0,3.9-1,5.5"/>
			</g>
		</g>
		<path class="st4" d="M-311.1,358.4c0.1,0.7,0.1,1.4-0.1,2.1c-0.6,3-2.5,11.8-3.2,16.6c-0.8,5.9-10.3,24-10.3,24
			s-8.7,10.8-13.2,16.5c-2.2,2.8-5.6,14-8.6,24.7c-3.7-1.1-7.4-2.3-11-3.6c-3-1.1-6-2.2-9-3.4c-4.2-1.6-9.5-4.3-15.6-7.6
			c1.7-6,2.8-10.7,2.8-10.9c0-0.6,3.6-7.6,3.6-7.6l-3.1-41.4l-1.9-6.3c-1-3.3-1.6-6.6-1.8-10c-0.4-5.1,0-10.3,1.3-15.3l5.4-8.1
			l2.5-0.2l7.9-11c0,0,4.2-1.3,5.3,1.9c1.1,3.2-3.5,9.2-3.5,9.2l-1.6,9.9l3.8,9.2l2,0.7c0,0,0.7-16.3,0.2-19.5l4.2-14.9
			c0,0,2.5-5,3.3-7.5c0.8-2.5,5.2-5,7.8-0.6c0,0,1.4,2.2,0.4,5.3c-1.1,3-1.9,5.5-1.9,5.5s-0.9,12.6-1.2,12.9
			c-0.3,0.3,1.9,18.7,1.9,18.7l1.6,0.7l0.6-17.5l3.4-16.5c0,0-0.3-7.9,5.3-7c0,0,2.6-0.3,4.1,2.6c1.5,2.9,0.1,21.8,0.1,21.8
			l1.4,19.6l2.2,15.1l2.6-10.4c0,0,0.2-14.9,9.5-16.1c0,0,2.8-0.5,3.4,1.4c0.6,1.9-1.4,5.9-1.1,9.7
			C-311.6,353.8-311.3,356.8-311.1,358.4z"/>
		<g>
			<g>
				<g>
					<path id="XMLID_1_" class="st2" d="M-313.9,340c-0.4-2-3.2-1.7-3.2-1.7c-9.4,0.6-10.7,15.4-10.7,15.4l-3.4,10.1l-1.1-15.3
						l0.1-19.7c0,0,2.9-18.8,1.6-21.8c-1.3-3-3.9-2.9-3.9-2.9c-5.5-1.4-5.8,6.5-5.8,6.5L-345,327l-1.9,17.5l-1.6-0.8
						c0,0-0.7-18.5-0.4-18.8c0.3-0.3,2.2-12.8,2.2-12.8s1-2.3,2.3-5.3c1.3-3,0-5.3,0-5.3c-2.2-4.5-6.9-2.4-7.8,0
						c-1,2.4-3.8,7.2-3.8,7.2l-5.3,14.5c0.2,3.3-1.7,19.5-1.7,19.5l-1.9-0.9l-3.1-9.5l2.3-9.7c0,0,5.1-5.6,4.2-8.9
						c-0.8-3.3-5.2-2.3-5.2-2.3l-8.7,10.4h-2.5l-6,7.6c-1.6,4.9-2.5,10-2.5,15.2c0,3.4,0.4,6.8,1.1,10.1l1.4,6.4v41.6
						c0,0-4.1,6.7-4.1,7.3c0,0.3-1.7,5.5-4.1,12.1c10.4,6.1,19.3,10.8,25.6,13.3c3,1.2,6,2.3,9,3.4c3.8-10.7,8.2-22.1,10.7-24.8
						c4.9-5.3,14.4-15.4,14.4-15.4s10.8-17.4,12.1-23.1c1-4.7,3.6-13.3,4.5-16.3c0.2-0.7,0.3-1.4,0.2-2.1c-0.1-1.6-0.2-4.6-0.2-7.3
						C-315.8,345.8-313.5,342-313.9,340z"/>
				</g>
				<g>
					<defs>
						<path id="SVGID_5_" d="M-313.9,340c-0.4-2-3.2-1.7-3.2-1.7c-9.4,0.6-10.7,15.4-10.7,15.4l-3.4,10.1l-1.1-15.3l0.1-19.7
							c0,0,2.9-18.8,1.6-21.8c-1.3-3-3.9-2.9-3.9-2.9c-5.5-1.4-5.8,6.5-5.8,6.5L-345,327l-1.9,17.5l-1.6-0.8c0,0-0.7-18.5-0.4-18.8
							c0.3-0.3,2.2-12.8,2.2-12.8s1-2.3,2.3-5.3c1.3-3,0-5.3,0-5.3c-2.2-4.5-6.9-2.4-7.8,0c-1,2.4-3.8,7.2-3.8,7.2l-5.3,14.5
							c0.2,3.3-1.7,19.5-1.7,19.5l-1.9-0.9l-3.1-9.5l2.3-9.7c0,0,5.1-5.6,4.2-8.9c-0.8-3.3-5.2-2.3-5.2-2.3l-8.7,10.4h-2.5l-6,7.6
							c-1.6,4.9-2.5,10-2.5,15.2c0,3.4,0.4,6.8,1.1,10.1l1.4,6.4v41.6c0,0-4.1,6.7-4.1,7.3c0,0.3-1.7,5.5-4.1,12.1
							c10.4,6.1,19.3,10.8,25.6,13.3c3,1.2,6,2.3,9,3.4c3.8-10.7,8.2-22.1,10.7-24.8c4.9-5.3,14.4-15.4,14.4-15.4
							s10.8-17.4,12.1-23.1c1-4.7,3.6-13.3,4.5-16.3c0.2-0.7,0.3-1.4,0.2-2.1c-0.1-1.6-0.2-4.6-0.2-7.3
							C-315.8,345.8-313.5,342-313.9,340z"/>
					</defs>
					<clipPath id="SVGID_6_">
						<use xlink:href="#SVGID_5_"  style="overflow:visible;"/>
					</clipPath>
					<path class="st16" d="M-378.8,335.8c1.6-2,4.9-2.8,6.8-1c1.1,1,1.4,2.6,1.7,4c0.3,1.5,0.5,3,1.5,4.1c1,1.1,2.9,1.6,3.9,0.5
						c0.1,2.2,0.3,4.4,0.4,6.6c2.3-4.1,3.5-8.8,3.4-13.4c0-2.3-0.4-4.6,0.1-6.8s2.2-4.4,4.5-4.5c2.5-0.1,4.5,2.3,5,4.8
						c0.5,2.5-0.1,5-0.2,7.5c-0.2,3.8,0.5,7.7,2.2,11.2c0.5-1.1,1.1-2.1,1.6-3.2c0.5,2.2,1,4.3,1.4,6.5c0.4-4.7,0.8-9.5,1.2-14.2
						c0.1-1.3,0.2-2.7,0.9-3.9c0.6-1.2,1.9-2.2,3.2-2c1.8,0.2,2.8,2.1,3.4,3.8c4.5,12.7,2.6,26.7,0.7,40.1c1.3,0.2,2.3-1,2.6-2.3
						s0.2-2.6,0.7-3.7c0.5-1.2,1.9-2.2,3-1.5c1.6,1,0.5,4.1,2.1,4.9c0.5-4,2.1-7.8,4.5-10.9c1.1-1.4,2.8-2.9,4.5-2.4
						c1.3,0.3,2.2,1.7,2.4,3s2.1-4.2,1.8-2.9c0.8-7.7-0.8-8.5,0-16.2c0.1-1.4,2.4-3.8,1.4-4.8c-0.9-1-3.6-2.4-4.8-1.8
						c-1.2,0.6-5.1,2.5-5.9,3.6c-4.9,6.8-4.6,16.6-6.1,24.8c-1.3-12.6-2.6-25.3-0.3-37.7c1.3-6.8,3.6-14,1.4-20.6
						c-1-3-3.7-6-6.8-5.5c-2.5,0.5-4,3-5.1,5.4c-3.4,7.9-5,16.5-6.5,25c1.9-8.5,3.8-17.1,5.6-25.6c0.5-2.2,1-4.5,0.6-6.7
						s-1.9-4.4-4.2-4.9c-2.2-0.5-4.4,0.8-6.1,2.4c-5.9,5.4-8.2,13.7-10.1,21.6c0.7-2,1.4-4.2,1.2-6.3c-0.2-2.1-1.6-4.3-3.7-4.8
						c-2.7-0.6-5.2,1.8-6.4,4.4c-1.2,2.5-1.8,5.4-3.7,7.4c-1.4-1.6-4-1.5-5.7-0.3s-2.8,3.1-3.6,5c-3.1,7-4.5,14.8-3.9,22.5
						c1.4-3.1,4.9-5.1,8.2-4.7c-0.2-1.7-0.4-3.4-0.6-5.1"/>
				</g>
				<g>
					<defs>
						<path id="SVGID_7_" d="M-313.9,340c-0.4-2-3.2-1.7-3.2-1.7c-9.4,0.6-10.7,15.4-10.7,15.4l-3.4,10.1l-1.1-15.3l0.1-19.7
							c0,0,2.9-18.8,1.6-21.8c-1.3-3-3.9-2.9-3.9-2.9c-5.5-1.4-5.8,6.5-5.8,6.5L-345,327l-1.9,17.5l-1.6-0.8c0,0-0.7-18.5-0.4-18.8
							c0.3-0.3,2.2-12.8,2.2-12.8s1-2.3,2.3-5.3c1.3-3,0-5.3,0-5.3c-2.2-4.5-6.9-2.4-7.8,0c-1,2.4-3.8,7.2-3.8,7.2l-5.3,14.5
							c0.2,3.3-1.7,19.5-1.7,19.5l-1.9-0.9l-3.1-9.5l2.3-9.7c0,0,5.1-5.6,4.2-8.9c-0.8-3.3-5.2-2.3-5.2-2.3l-8.7,10.4h-2.5l-6,7.6
							c-1.6,4.9-2.5,10-2.5,15.2c0,3.4,0.4,6.8,1.1,10.1l1.4,6.4v41.6c0,0-4.1,6.7-4.1,7.3c0,0.3-1.7,5.5-4.1,12.1
							c10.4,6.1,19.3,10.8,25.6,13.3c3,1.2,6,2.3,9,3.4c3.8-10.7,8.2-22.1,10.7-24.8c4.9-5.3,14.4-15.4,14.4-15.4
							s10.8-17.4,12.1-23.1c1-4.7,3.6-13.3,4.5-16.3c0.2-0.7,0.3-1.4,0.2-2.1c-0.1-1.6-0.2-4.6-0.2-7.3
							C-315.8,345.8-313.5,342-313.9,340z"/>
					</defs>
					<clipPath id="SVGID_8_">
						<use xlink:href="#SVGID_7_"  style="overflow:visible;"/>
					</clipPath>
					<g class="st17">
						<g>
							<path class="st0" d="M-372.2,352.1c-0.1,1.3-0.2,2.5-0.3,3.8c0.4-1.1,1.9-1.4,2.8-0.7c-0.2-0.8,0.3-1.6,0.6-2.3
								c0.3-0.8,0.4-1.8-0.4-2.2c-0.9-0.4-1.7,0.6-2.2,1.4c0-0.3-0.1-0.6-0.1-0.9L-372.2,352.1z"/>
						</g>
						<g>
							<path class="st0" d="M-357.9,349.8c-1,1.2-1.7,2.6-2,4.2c0.4-0.4,0.9-0.9,1.5-1.1c0.6-0.2,1.3-0.1,1.7,0.4
								c0.2,0.3,0.3,0.7,0.6,0.9c0.3,0.2,0.8,0,1-0.4c0.2-0.3,0.2-0.7,0.3-1.1c0-0.7,0.1-1.5-0.1-2.2c-0.2-0.7-0.7-1.4-1.4-1.5
								c-0.7-0.2-1.6,0.4-1.6,1.1L-357.9,349.8z"/>
						</g>
						<g>
							<path class="st0" d="M-344,353.3c-1.1,1.5-1.8,3.2-2.1,5c0.7-0.1,1.4-0.6,1.9-1c0.6-0.5,1.2-0.9,2-1c0.7-0.1,1.6,0.5,1.6,1.2
								c-0.1-0.8,0-1.7,0.1-2.5c0.1-0.8,0.1-1.7-0.2-2.5s-1.1-1.5-1.9-1.4s-1.6,1-1.2,1.8L-344,353.3z"/>
						</g>
						<g>
							<path class="st0" d="M-382.2,358.3c-0.8,1.4-1.2,3.1-1.2,4.7c0-0.8,0.7-1.4,1.5-1.5c0.7-0.1,1.5,0.2,2.1,0.6
								c0.1-0.8,0.3-1.5,0.1-2.3s-0.7-1.5-1.5-1.6c-0.8-0.1-1.6,0.6-1.4,1.4c-0.1-0.2-0.2-0.4-0.2-0.6L-382.2,358.3z"/>
						</g>
					</g>
				</g>
				<g>
					<defs>
						<path id="SVGID_9_" d="M-313.9,340c-0.4-2-3.2-1.7-3.2-1.7c-9.4,0.6-10.7,15.4-10.7,15.4l-3.4,10.1l-1.1-15.3l0.1-19.7
							c0,0,2.9-18.8,1.6-21.8c-1.3-3-3.9-2.9-3.9-2.9c-5.5-1.4-5.8,6.5-5.8,6.5L-345,327l-1.9,17.5l-1.6-0.8c0,0-0.7-18.5-0.4-18.8
							c0.3-0.3,2.2-12.8,2.2-12.8s1-2.3,2.3-5.3c1.3-3,0-5.3,0-5.3c-2.2-4.5-6.9-2.4-7.8,0c-1,2.4-3.8,7.2-3.8,7.2l-5.3,14.5
							c0.2,3.3-1.7,19.5-1.7,19.5l-1.9-0.9l-3.1-9.5l2.3-9.7c0,0,5.1-5.6,4.2-8.9c-0.8-3.3-5.2-2.3-5.2-2.3l-8.7,10.4h-2.5l-6,7.6
							c-1.6,4.9-2.5,10-2.5,15.2c0,3.4,0.4,6.8,1.1,10.1l1.4,6.4v41.6c0,0-4.1,6.7-4.1,7.3c0,0.3-1.7,5.5-4.1,12.1
							c10.4,6.1,19.3,10.8,25.6,13.3c3,1.2,6,2.3,9,3.4c3.8-10.7,8.2-22.1,10.7-24.8c4.9-5.3,14.4-15.4,14.4-15.4
							s10.8-17.4,12.1-23.1c1-4.7,3.6-13.3,4.5-16.3c0.2-0.7,0.3-1.4,0.2-2.1c-0.1-1.6-0.2-4.6-0.2-7.3
							C-315.8,345.8-313.5,342-313.9,340z"/>
					</defs>
					<clipPath id="SVGID_10_">
						<use xlink:href="#SVGID_9_"  style="overflow:visible;"/>
					</clipPath>
					<path id="XMLID_3_" class="st18" d="M-378.8,335.8c1.6-2,4.9-2.8,6.8-1c1.1,1,1.4,2.6,1.7,4c0.3,1.5,0.5,3,1.5,4.1
						c1,1.1,2.9,1.6,3.9,0.5c0.1,2.2,0.3,4.4,0.4,6.6c2.3-4.1,3.5-8.8,3.4-13.4c0-2.3-0.4-4.6,0.1-6.8s2.2-4.4,4.5-4.5
						c2.5-0.1,4.5,2.3,5,4.8c0.5,2.5-0.1,5-0.2,7.5c-0.2,3.8,0.5,7.7,2.2,11.2c0.5-1.1,1.1-2.1,1.6-3.2c0.5,2.2,1,4.3,1.4,6.5
						c0.4-4.7,0.8-9.5,1.2-14.2c0.1-1.3,0.2-2.7,0.9-3.9c0.6-1.2,1.9-2.2,3.2-2c1.8,0.2,2.8,2.1,3.4,3.8c4.5,12.7,2.6,26.7,0.7,40.1
						c1.3,0.2,2.3-1,2.6-2.3s0.2-2.6,0.7-3.7c0.5-1.2,1.9-2.2,3-1.5c1.6,1,0.5,4.1,2.1,4.9c0.5-4,2.1-7.8,4.5-10.9
						c1.1-1.4,2.8-2.9,4.5-2.4c1.3,0.3,2.2,1.7,2.4,3s2.1-4.2,1.8-2.9c0.8-7.7-0.8-8.5,0-16.2c0.1-1.4,2.4-3.8,1.4-4.8
						c-0.9-1-3.6-2.4-4.8-1.8c-1.2,0.6-5.1,2.5-5.9,3.6c-4.9,6.8-4.6,16.6-6.1,24.8c-1.3-12.6-2.6-25.3-0.3-37.7
						c1.3-6.8,3.6-14,1.4-20.6c-1-3-3.7-6-6.8-5.5c-2.5,0.5-4,3-5.1,5.4c-3.4,7.9-5,16.5-6.5,25c1.9-8.5,3.8-17.1,5.6-25.6
						c0.5-2.2,1-4.5,0.6-6.7s-1.9-4.4-4.2-4.9c-2.2-0.5-4.4,0.8-6.1,2.4c-5.9,5.4-8.2,13.7-10.1,21.6c0.7-2,1.4-4.2,1.2-6.3
						c-0.2-2.1-1.6-4.3-3.7-4.8c-2.7-0.6-5.2,1.8-6.4,4.4c-1.2,2.5-1.8,5.4-3.7,7.4c-1.4-1.6-4-1.5-5.7-0.3s-2.8,3.1-3.6,5
						c-3.1,7-4.5,14.8-3.9,22.5c1.4-3.1,4.9-5.1,8.2-4.7c-0.2-1.7-0.4-3.4-0.6-5.1"/>
				</g>
				<g>
					<defs>
						<path id="SVGID_11_" d="M-313.9,340c-0.4-2-3.2-1.7-3.2-1.7c-9.4,0.6-10.7,15.4-10.7,15.4l-3.4,10.1l-1.1-15.3l0.1-19.7
							c0,0,2.9-18.8,1.6-21.8c-1.3-3-3.9-2.9-3.9-2.9c-5.5-1.4-5.8,6.5-5.8,6.5L-345,327l-1.9,17.5l-1.6-0.8c0,0-0.7-18.5-0.4-18.8
							c0.3-0.3,2.2-12.8,2.2-12.8s1-2.3,2.3-5.3c1.3-3,0-5.3,0-5.3c-2.2-4.5-6.9-2.4-7.8,0c-1,2.4-3.8,7.2-3.8,7.2l-5.3,14.5
							c0.2,3.3-1.7,19.5-1.7,19.5l-1.9-0.9l-3.1-9.5l2.3-9.7c0,0,5.1-5.6,4.2-8.9c-0.8-3.3-5.2-2.3-5.2-2.3l-8.7,10.4h-2.5l-6,7.6
							c-1.6,4.9-2.5,10-2.5,15.2c0,3.4,0.4,6.8,1.1,10.1l1.4,6.4v41.6c0,0-4.1,6.7-4.1,7.3c0,0.3-1.7,5.5-4.1,12.1
							c10.4,6.1,19.3,10.8,25.6,13.3c3,1.2,6,2.3,9,3.4c3.8-10.7,8.2-22.1,10.7-24.8c4.9-5.3,14.4-15.4,14.4-15.4
							s10.8-17.4,12.1-23.1c1-4.7,3.6-13.3,4.5-16.3c0.2-0.7,0.3-1.4,0.2-2.1c-0.1-1.6-0.2-4.6-0.2-7.3
							C-315.8,345.8-313.5,342-313.9,340z"/>
					</defs>
					<clipPath id="SVGID_12_">
						<use xlink:href="#SVGID_11_"  style="overflow:visible;"/>
					</clipPath>
					<g class="st19">
						<g>
							<path class="st2" d="M-372.2,352.1c-0.1,1.3-0.2,2.5-0.3,3.8c0.4-1.1,1.9-1.4,2.8-0.7c-0.2-0.8,0.3-1.6,0.6-2.3
								c0.3-0.8,0.4-1.8-0.4-2.2c-0.9-0.4-1.7,0.6-2.2,1.4c0-0.3-0.1-0.6-0.1-0.9L-372.2,352.1z"/>
						</g>
						<g>
							<path class="st2" d="M-357.9,349.8c-1,1.2-1.7,2.6-2,4.2c0.4-0.4,0.9-0.9,1.5-1.1c0.6-0.2,1.3-0.1,1.7,0.4
								c0.2,0.3,0.3,0.7,0.6,0.9c0.3,0.2,0.8,0,1-0.4c0.2-0.3,0.2-0.7,0.3-1.1c0-0.7,0.1-1.5-0.1-2.2c-0.2-0.7-0.7-1.4-1.4-1.5
								c-0.7-0.2-1.6,0.4-1.6,1.1L-357.9,349.8z"/>
						</g>
						<g>
							<path class="st2" d="M-344,353.3c-1.1,1.5-1.8,3.2-2.1,5c0.7-0.1,1.4-0.6,1.9-1c0.6-0.5,1.2-0.9,2-1c0.7-0.1,1.6,0.5,1.6,1.2
								c-0.1-0.8,0-1.7,0.1-2.5c0.1-0.8,0.1-1.7-0.2-2.5s-1.1-1.5-1.9-1.4s-1.6,1-1.2,1.8L-344,353.3z"/>
						</g>
						<g>
							<path class="st2" d="M-382.2,358.3c-0.8,1.4-1.2,3.1-1.2,4.7c0-0.8,0.7-1.4,1.5-1.5c0.7-0.1,1.5,0.2,2.1,0.6
								c0.1-0.8,0.3-1.5,0.1-2.3s-0.7-1.5-1.5-1.6c-0.8-0.1-1.6,0.6-1.4,1.4c-0.1-0.2-0.2-0.4-0.2-0.6L-382.2,358.3z"/>
						</g>
					</g>
				</g>
			</g>
			<g>
				<path class="st15" d="M-392,421.9c2.4-6.5,4.1-11.8,4.1-12.1c0-0.6,4.1-7.3,4.1-7.3v-41.6l-1.4-6.4c-0.7-3.3-1.1-6.7-1.1-10.1
					c0-5.1,0.8-10.3,2.4-15.2l6-7.6h2.5l8.7-10.4c0,0,4.3-1,5.2,2.3c0.8,3.3-4.2,8.9-4.2,8.9l-2.3,9.7l3.1,9.5l1.9,0.9
					c0,0,1.9-16.2,1.7-19.5l5.3-14.5c0,0,2.9-4.8,3.8-7.2c1-2.4,5.6-4.5,7.8,0c0,0,1.3,2.3,0,5.3c-1.3,3-2.3,5.3-2.3,5.3
					s-1.9,12.5-2.2,12.8c-0.3,0.3,0.4,18.8,0.4,18.8l1.6,0.8l1.9-17.5l4.6-16.2c0,0,0.3-7.9,5.8-6.5c0,0,2.6-0.1,3.9,2.9
					c1.3,3-1.6,21.8-1.6,21.8l-0.1,19.7l1.1,15.3l3.4-10.1c0,0,1.3-14.8,10.7-15.4c0,0,2.8-0.3,3.2,1.7c0.4,2-1.8,5.8-1.8,9.6
					c0,2.7,0.2,5.7,0.2,7.3c0,0.7,0,1.4-0.2,2.1c-0.9,3-3.4,11.6-4.5,16.3c-1.3,5.8-12.1,23.1-12.1,23.1s-9.5,10.2-14.4,15.4
					c-2.4,2.7-6.9,14.1-10.7,24.8"/>
			</g>
			<path class="st5" d="M-363.2,344.1c0.6,2,0,4.2-1.4,5.7"/>
			<path class="st5" d="M-379.3,358.1c1.4-2.1,2.7-5,2.3-7.6c-0.7-4.9-3-10.6-2-15.4c0.6-3.1,1.3-6.2,1.9-9.3"/>
			<path class="st15" d="M-339.4,311.7c1.6-0.4,3.4-0.4,5,0c0-0.5,0-0.9,0.1-1.4"/>
			<path class="st15" d="M-352.5,305.4c1,0.7,2.3,0.8,3.3,0.2c1-0.6,1.7-1.7,1.7-2.9"/>
			<path class="st15" d="M-316.4,340.2c-2.8,0.6-4.9,3.5-4.6,6.3c0.8,0.2,1.6,0.5,2.5,0.7"/>
			<path class="st5" d="M-348.6,341.4c0.1,1.7-0.1,5.7,0,7.4"/>
			<path class="st5" d="M-346.7,343.7c-0.2,2.7-0.4,5.5-0.6,8.2c0-0.4,0-0.7,0-1"/>
			<path class="st5" d="M-331.5,366.9c0.7,3,0.4,6.3-0.9,9.1"/>
			<path class="st15" d="M-356.8,352.5c-2.2,2.4-1.9,8.1-0.3,11.3"/>
			<path class="st15" d="M-340.7,356.4c0.1,2.6-0.9,5.2-2.7,7.3"/>
			<path class="st15" d="M-372.7,353.6c-0.4,2.4,0.2,4.9,1.5,7"/>
			<path class="st15" d="M-382,361.1c-0.1,1.9,0.4,3.8,1.5,5.3"/>
			<path class="st15" d="M-369.3,315c1.1-0.5,2.6-0.3,3.5,0.6c0.4-0.5,0.8-1.1,1.2-1.6"/>
			<path class="st15" d="M-359,322.3c1.7-1.1,4.1-0.6,5.3,0.9"/>
			<path class="st15" d="M-343,327.3c1.8-0.8,3.9-0.8,5.7,0.1"/>
			<path class="st15" d="M-378.6,335.7c1-1.8,3.2-2.9,5.2-2.6"/>
			<path class="st15" d="M-385.3,345.3c0-1.3,1.1-2.5,2.4-2.7"/>
		</g>
	</g>
</g>
<g id="Coffee">
	<g>
		<circle class="st20" cx="-127.7" cy="232" r="41.4"/>
		<g>
			<g>
				<g>
					<path class="st4" d="M-80.8,233c-8.8,14.5-12,12.5-42.1,27c-15.3,7.3-30.1-16.2-20.1-40.4c0.5-1.2,4.8-7.1,4.8-7.1
						c1.8-8,8.5-14.7,16.5-16.6c8-1.9,16.9,1.1,22.1,7.5c5.7-5,13.9-6.9,21.2-5.1c0.4,1,0.7,2,1,3c0.1,0.4,0.2,0.8,0.4,1.1
						c0.4,1.2,0.7,2.3,1.1,3.5c0.7,2.2,1.3,4.5,1.8,6.8c-3.3-0.9-6.7-0.9-9.8,0.6c-2.2,1.1-4.1,2.9-6.4,3.7
						c-2.3,0.9-5.5,0.4-6.4-1.9c1.1,4.6,6,3.2,10.6,4.2C-78.9,220.7-77,226.9-80.8,233z"/>
				</g>
				<g>
					<path class="st21" d="M-94.4,225.9c0,0,7.4-1,10.9-0.5c2.2,0.3,3.6,1.6,4.3,2.4c0.3,0.4,0.5,0.8,0.5,1.3l0.4,5.8
						c0,0.7-0.2,1.3-0.6,1.8c-1.4,1.5-5.8,4.3-18.8,5.2C-115.8,243.4-94.4,225.9-94.4,225.9z"/>
					<g>
						<path class="st21" d="M-99.8,210.9c2.1,2.6,6.1,8.5,6.1,17.6c0,6.9-8,30.5-28.5,33.4c-21.7,3-39.1-15.5-35.4-37.9
							C-155,208.6-117.2,189.3-99.8,210.9z"/>
						<ellipse class="st2" cx="-126.3" cy="227" rx="31.5" ry="29.8"/>
						<ellipse class="st9" cx="-126.4" cy="228.5" rx="25.8" ry="24.5"/>
						<path class="st20" d="M-94.8,227c0-16.5-14.1-29.8-31.5-29.8s-31.5,13.3-31.5,29.8"/>
						<path class="st20" d="M-103.1,247.1c5.2-5.3,8.3-12.4,8.3-20.2"/>
						<path class="st20" d="M-148.3,248.2c5.7,5.3,13.5,8.5,22,8.5c5.3,0,10.2-1.2,14.6-3.4"/>
						<path class="st20" d="M-152.9,242.9c0.4,0.6,0.8,1.2,1.3,1.8"/>
						<path class="st20" d="M-157.8,227c0,4.5,1.1,8.9,3,12.7"/>
					</g>
					<path class="st21" d="M-80.1,235.1c0,0-5.6-3.9-14.7-0.4"/>
					<path class="st21" d="M-84.9,237.9c-2.1,0.6-5.7,1.4-11.6,1.8"/>
					<path class="st21" d="M-82,236.6c0,0-0.3,0.3-1.4,0.7"/>
				</g>
			</g>
			<g>
				<g>
					<path class="st2" d="M-77,202.4c-0.1-0.4-0.2-0.8-0.4-1.1c-1.9-5.9-4.4-12.4-7.4-19.3c-0.5-1.3-1.1-2.6-1.7-3.9
						c-0.2,0-0.5,0-0.7,0.1c-2.9,0.3-5.9,0.6-8.2,2.3c-2.4,1.7-3.8,5.1-2.2,7.5c1.5,2.4,5.4,3.8,4.8,6.6c-6.4,3.6-14.2,3.2-21.4,5
						c-4.3,1.1-8.4,3-11.9,5.6c0,0,0,0,0,0c-1.1,0.9-2.2,1.8-3.2,2.7c-0.5,0.4-0.9,0.9-1.3,1.4c0,0,0,0,0,0c-0.6,0.8-1,1.6-1.1,2.5
						c-0.2,2.7,2.2,4.5,4.8,5.6c0.5,0.2,0.5,0.9,0,1.1c-1.7,0.7-3.3,1.5-4.7,2.7c0,0,0,0,0,0c-0.8,0.7-0.1,2.1,1,2
						c0.1,0,0.3,0,0.4,0c1.1-0.1,2.1,0.1,3,0.4c1.5,0.5,2.6,1.6,2.7,2.9c0.2,2-2.1,3.9-5.1,4.1c-0.7,0.1-0.2,0.9,0.9,1.1
						c2.1,0.4,4.3,0,6.4-0.5c2.5-0.6,5.2-1.5,6.6-3.6c0.6-0.9,0.8-2.1,0.6-3.2c-0.2-1.5-1.2-2.8-2.7-2.9c4.6-0.6,9.2-1.5,13.7-2.8h0
						l1.4-0.4c1.3-0.4,2.8-0.9,3.9-1.7c0.7-0.5,1.3-1.1,1.7-1.9c1-2-0.4-5.2-2.6-4.8c6.5-2.5,13.3-4,19.8-6.3
						C-79.1,203.2-78.1,202.8-77,202.4z"/>
				</g>
			</g>
		</g>
	</g>
</g>
<g id="Monitor">
	<g>
		<path class="st4" d="M-128.3,118.6c-6,5.4-12.9,9.9-19.9,14c-36.4,21.5-77.5,34.4-119.4,40.7c-41.8,6.3-84.4,6.1-126.6,2.6
			c-8.3-0.7-16.7-1.5-24.3-4.9c-6.5-2.8-12.3-7.8-15-14.2c9.1-10.4,17.6-20.9,27.1-30.9c2.2-2.4,4.5-4.7,6.9-7c2-1.9,4-3.8,6.1-5.6
			c2.4-2.1,4.9-4.2,7.5-6.2c3.6-2.8,7.3-5.4,11.3-7.9c1-0.6,1.9-1.2,2.9-1.8c99.7-62,173.1-41.7,222.1,0c3.7,3.1,7.2,6.4,10.7,9.8
			c2.1,2,4.1,4.1,6,6.2c0.2,0.2,0.4,0.4,0.6,0.7C-130.9,115.6-129.6,117.1-128.3,118.6z"/>
		<path class="st21" d="M-124.3,108.6l-335.5,1.5l5.1-7.6c2.4-3.7,6.5-5.9,10.9-5.9h303.6c4,0,7.7,1.8,10.2,4.9L-124.3,108.6z"/>
		<g>
			<g>
				<path class="st22" d="M-286.2,245.6h-18.4c-18.9,0-34.2-15.3-34.2-34.2v-18.4c0-18.9,15.3-34.2,34.2-34.2h18.4
					c18.9,0,34.2,15.3,34.2,34.2v18.4C-252.1,230.3-267.3,245.6-286.2,245.6z"/>
				<path class="st23" d="M-323,209.6v12.3c0,3.9,3.1,7,7,7h42.3c3.8,0,7-3.1,7-7c0.1-5.5,0.3-12.4,0.3-12.4L-323,209.6L-323,209.6z
					"/>
				<g>
					<g>
						<path class="st24" d="M-168.3,213.7h-247.2c-2.6,0-5-1.6-5.9-4l-38.1-97.9c-1-2.6,0.9-5.3,3.6-5.3h328c2.7,0,4.6,2.8,3.6,5.3
							l-38.1,97.9C-163.3,212.1-165.7,213.7-168.3,213.7z"/>
						<polygon class="st9" points="-166.4,205.2 -417.9,205.2 -452.5,112.7 -132,112.7 						"/>
					</g>
				</g>
			</g>
			<rect x="-322.7" y="213.6" class="st9" width="56.1" height="3.8"/>
			<g>
				<g>
					<path class="st0" d="M-203.2,201.2h-177.6c-1,0-1.9-0.4-2.1-1l-25.3-80.2c-0.3-0.9,0.5-1.6,1.8-1.6h228.7c1.3,0,2,0.7,1.8,1.6
						l-25.3,80.2C-201.3,200.8-202.2,201.2-203.2,201.2z"/>
					<polygon class="st9" points="-203.8,199.4 -380.1,199.4 -401.6,128.9 -182.4,128.9 					"/>
					<g>
						<path class="st2" d="M-354.8,146.4h-33.4c-0.8,0-1.4,0.4-1.2,1c0.2,0.5,0.9,1,1.8,1h33.2c0.8,0,1.4-0.4,1.3-1
							C-353.2,146.8-354,146.4-354.8,146.4z"/>
						<path class="st2" d="M-353.7,152.5h-28.4c-0.8,0-1.3,0.4-1.2,1c0.1,0.5,0.9,1,1.7,1h28.2c0.8,0,1.4-0.4,1.3-1
							C-352.1,152.9-352.9,152.5-353.7,152.5z"/>
						<path class="st11" d="M-352.6,158.4h-32.2c-0.8,0-1.3,0.4-1.2,0.9c0.1,0.5,0.9,0.9,1.7,0.9h32c0.8,0,1.4-0.4,1.3-0.9
							C-351.1,158.8-351.8,158.4-352.6,158.4z"/>
						<path class="st2" d="M-351.6,164h-18.9c-0.8,0-1.3,0.4-1.2,0.9c0.1,0.5,0.8,0.9,1.6,0.9h18.8c0.8,0,1.3-0.4,1.2-0.9
							C-350.1,164.4-350.8,164-351.6,164z"/>
						<path class="st2" d="M-350.6,169.5h-31.1c-0.8,0-1.3,0.4-1.1,0.9c0.1,0.5,0.9,0.9,1.6,0.9h30.9c0.8,0,1.3-0.4,1.2-0.9
							C-349.1,169.9-349.8,169.5-350.6,169.5z"/>
						<path class="st2" d="M-349.6,174.8h-25.1c-0.8,0-1.3,0.4-1.1,0.8c0.1,0.5,0.8,0.8,1.6,0.8h25c0.8,0,1.3-0.4,1.2-0.8
							C-348.1,175.2-348.8,174.8-349.6,174.8z"/>
						<path class="st2" d="M-348.6,179.9h-24.7c-0.7,0-1.2,0.4-1.1,0.8c0.1,0.4,0.8,0.8,1.6,0.8h24.6c0.7,0,1.3-0.4,1.2-0.8
							C-347.2,180.3-347.9,179.9-348.6,179.9z"/>
						<path class="st2" d="M-347.7,184.9h-27c-0.7,0-1.2,0.4-1.1,0.8c0.1,0.4,0.8,0.8,1.5,0.8h26.8c0.7,0,1.3-0.3,1.2-0.8
							S-347,184.9-347.7,184.9z"/>
						<path class="st11" d="M-346.8,189.7h-17.4c-0.7,0-1.2,0.3-1.1,0.8c0.1,0.4,0.8,0.8,1.5,0.8h17.3c0.7,0,1.2-0.3,1.2-0.8
							C-345.5,190.1-346.1,189.7-346.8,189.7z"/>
						<path class="st11" d="M-356,140.1h-24.9c-0.8,0-1.4,0.5-1.3,1c0.1,0.6,0.9,1,1.8,1h24.7c0.8,0,1.4-0.5,1.3-1
							C-354.4,140.5-355.1,140.1-356,140.1z"/>
						<path class="st2" d="M-357.2,133.5h-34.6c-0.9,0-1.4,0.5-1.2,1.1c0.2,0.6,1,1.1,1.8,1.1h34.4c0.9,0,1.5-0.5,1.3-1.1
							C-355.5,134-356.3,133.5-357.2,133.5z"/>
						<path class="st2" d="M-346,194.4h-28.7c-0.7,0-1.2,0.3-1.1,0.7c0.1,0.4,0.8,0.7,1.5,0.7h28.6c0.7,0,1.2-0.3,1.1-0.7
							C-344.6,194.7-345.3,194.4-346,194.4z"/>
						<polygon class="st11" points="-343.1,148.6 -336.6,148.6 -336.9,146.1 -343.4,146.1 						"/>
						<polygon class="st11" points="-342.2,154.6 -335.8,154.6 -336.1,152.2 -342.5,152.2 						"/>
						<polygon class="st11" points="-341.3,160.4 -335.1,160.4 -335.4,158.1 -341.6,158.1 						"/>
						<polygon class="st11" points="-340.5,166 -334.3,166 -334.6,163.8 -340.8,163.8 						"/>
						<polygon class="st11" points="-339.6,171.4 -333.6,171.4 -333.9,169.3 -340,169.3 						"/>
						<polygon class="st11" points="-338.9,176.7 -332.9,176.7 -333.2,174.6 -339.2,174.6 						"/>
						<polygon class="st11" points="-338.1,181.8 -332.3,181.8 -332.5,179.7 -338.4,179.7 						"/>
						<polygon class="st11" points="-337.4,186.7 -331.6,186.7 -331.9,184.7 -337.7,184.7 						"/>
						<polygon class="st11" points="-336.6,191.4 -331,191.4 -331.2,189.5 -336.9,189.5 						"/>
						<polygon class="st11" points="-344,142.4 -337.4,142.4 -337.8,139.8 -344.4,139.8 						"/>
						<polygon class="st11" points="-345,135.9 -338.3,135.9 -338.6,133.2 -345.4,133.2 						"/>
						<polygon class="st11" points="-336,196 -330.4,196 -330.6,194.2 -336.2,194.2 						"/>
						<path class="st2" d="M-301.8,185.7c0-0.4,0.6-0.8,1.3-0.8h95.8c0.7,0,1.2,0.4,1.1,0.8c-0.1,0.4-0.8,0.8-1.5,0.8h-95.3
							C-301.2,186.5-301.8,186.1-301.8,185.7z"/>
						<path class="st2" d="M-203.8,181.6h-53.1c-0.7,0-1.3-0.4-1.2-0.8c0-0.4,0.7-0.8,1.4-0.8h53.3c0.7,0,1.2,0.4,1.1,0.8
							C-202.3,181.2-203,181.6-203.8,181.6z"/>
						<path class="st11" d="M-269.4,181.6h-16.5c-0.7,0-1.3-0.4-1.3-0.8c0-0.4,0.6-0.8,1.4-0.8h16.6c0.7,0,1.3,0.4,1.3,0.8
							C-268,181.2-268.7,181.6-269.4,181.6z"/>
						<path class="st2" d="M-235,176.5h-74.8c-0.8,0-1.4-0.4-1.4-0.8c0-0.5,0.6-0.8,1.3-0.8h75.2c0.8,0,1.3,0.4,1.2,0.8
							C-233.5,176.1-234.2,176.5-235,176.5z"/>
						<path class="st11" d="M-325.5,174.8h5.3c0.8,0,1.4,0.4,1.4,0.8c0,0.5-0.5,0.8-1.3,0.8h-5.3c-0.8,0-1.4-0.4-1.5-0.8
							C-326.8,175.2-326.2,174.8-325.5,174.8z"/>
						<path class="st2" d="M-224.1,170.4c-0.1,0.5-0.8,0.9-1.6,0.9h-70.5c-0.8,0-1.4-0.4-1.4-0.9c0-0.5,0.6-0.9,1.4-0.9h70.9
							C-224.6,169.5-224,169.9-224.1,170.4z"/>
						<path class="st2" d="M-326,169.5h20c0.8,0,1.4,0.4,1.4,0.9c0,0.5-0.6,0.9-1.4,0.9h-19.9c-0.8,0-1.4-0.4-1.5-0.9
							C-327.4,169.9-326.8,169.5-326,169.5z"/>
						<path class="st2" d="M-326.6,164h76.9c0.8,0,1.4,0.4,1.3,0.9c-0.1,0.5-0.8,0.9-1.5,0.9h-76.5c-0.8,0-1.5-0.4-1.5-0.9
							C-328,164.4-327.4,164-326.6,164z"/>
						<path class="st2" d="M-276.7,160.2c-0.8,0-1.4-0.4-1.4-0.9c0-0.5,0.7-0.9,1.5-0.9h40.6c0.8,0,1.4,0.4,1.3,0.9
							c-0.1,0.5-0.8,0.9-1.6,0.9H-276.7z"/>
						<path class="st2" d="M-327.2,158.3h35.1c0.8,0,1.4,0.4,1.4,0.9c0,0.5-0.6,0.9-1.4,0.9H-327c-0.8,0-1.5-0.4-1.5-0.9
							C-328.6,158.8-328,158.3-327.2,158.3z"/>
						<path class="st2" d="M-196,154.4h-96.7c-0.8,0-1.5-0.4-1.5-1c0-0.5,0.6-1,1.5-1h97.3c0.8,0,1.3,0.4,1.2,1
							C-194.4,154-195.2,154.4-196,154.4z"/>
						<path class="st2" d="M-194.2,148.4h-85.1c-0.8,0-1.5-0.4-1.5-1c0-0.5,0.7-1,1.5-1h85.6c0.8,0,1.4,0.4,1.2,1
							C-192.6,147.9-193.4,148.4-194.2,148.4z"/>
						<path class="st11" d="M-192.4,142.1h-17.8c-0.8,0-1.4-0.5-1.3-1c0.1-0.6,0.9-1,1.8-1h17.9c0.8,0,1.4,0.5,1.2,1
							C-190.8,141.7-191.6,142.1-192.4,142.1z"/>
						<path class="st2" d="M-222.7,142.1h-65.4c-0.8,0-1.5-0.5-1.5-1c0-0.6,0.7-1,1.5-1h65.8c0.8,0,1.4,0.5,1.3,1
							C-221.1,141.7-221.9,142.1-222.7,142.1z"/>
						<path class="st2" d="M-323.9,189.7h60.4c0.7,0,1.3,0.3,1.2,0.8c0,0.4-0.7,0.8-1.4,0.8h-60.1c-0.7,0-1.3-0.3-1.4-0.8
							C-325.1,190.1-324.6,189.7-323.9,189.7z"/>
						<path class="st2" d="M-323.4,194.4h92.8c0.7,0,1.2,0.3,1.1,0.7c-0.1,0.4-0.7,0.7-1.4,0.7h-92.4c-0.7,0-1.3-0.3-1.4-0.7
							C-324.6,194.7-324.1,194.4-323.4,194.4z"/>
						<path class="st2" d="M-226,135.6h-47.3c-0.9,0-1.5-0.5-1.5-1.1c0-0.6,0.7-1.1,1.6-1.1h47.5c0.9,0,1.5,0.5,1.3,1.1
							C-224.3,135.2-225.1,135.6-226,135.6z"/>
						<path class="st11" d="M-286.6,135.6h-43c-0.9,0-1.6-0.5-1.7-1.1c-0.1-0.6,0.6-1.1,1.4-1.1h43.2c0.9,0,1.5,0.5,1.5,1.1
							C-285.1,135.2-285.8,135.6-286.6,135.6z"/>
						<path class="st11" d="M-250,189.7c0.7,0,1.3,0.3,1.2,0.8c-0.1,0.4-0.7,0.8-1.4,0.8h-4.7c-0.7,0-1.3-0.3-1.2-0.8
							c0-0.4,0.7-0.8,1.4-0.8H-250z"/>
						<path class="st11" d="M-307.4,185.7c0,0.4-0.5,0.8-1.3,0.8h-6.4c-0.7,0-1.3-0.3-1.4-0.8c0-0.4,0.5-0.8,1.3-0.8h6.4
							C-308,184.9-307.4,185.3-307.4,185.7z"/>
						<path class="st11" d="M-230.6,164.9c-0.1,0.5-0.8,0.9-1.6,0.9h-7.4c-0.8,0-1.3-0.4-1.3-0.9c0.1-0.5,0.8-0.9,1.6-0.9h7.5
							C-231.1,164-230.5,164.4-230.6,164.9z"/>
						<path class="st11" d="M-207.4,169.5c0.8,0,1.3,0.4,1.2,0.9c-0.1,0.5-0.9,0.9-1.6,0.9h-5.9c-0.8,0-1.3-0.4-1.2-0.9
							c0.1-0.5,0.8-0.9,1.6-0.9H-207.4z"/>
						<path class="st11" d="M-304.4,154.4c-0.8,0-1.5-0.4-1.5-1c0-0.5,0.6-1,1.4-1h6.3c0.8,0,1.5,0.4,1.5,1c0,0.5-0.6,1-1.4,1
							H-304.4z"/>
					</g>
				</g>
				<g>
					<path class="st2" d="M-390.3,123.6c0.5,1.6-0.5,2.9-2.1,2.9c-1.6,0-3.4-1.3-3.9-2.9c-0.5-1.7,0.4-3,2.1-3
						S-390.8,121.9-390.3,123.6z"/>
					<path class="st2" d="M-382.2,123.6c0.4,1.6-0.6,2.9-2.2,2.9s-3.4-1.3-3.8-2.9c-0.5-1.7,0.5-3,2.2-3
						C-384.4,120.6-382.6,122-382.2,123.6z"/>
					<path class="st2" d="M-373.9,123.6c0.4,1.6-0.6,2.9-2.3,2.9c-1.6,0-3.3-1.3-3.7-2.9c-0.4-1.7,0.6-3,2.3-3
						C-376,120.6-374.3,121.9-373.9,123.6z"/>
				</g>
			</g>
			<g>
				<polygon class="st25" points="-452.5,112.7 -425.6,184.7 -393.1,112.7 				"/>
				<polygon class="st25" points="-407,205.2 -353.1,112.7 -296.7,112.7 -376,205.2 				"/>
				<polygon class="st25" points="-272.3,112.2 -356.4,205.2 -343.4,205.2 -256.4,112.7 				"/>
				<polygon class="st25" points="-255.7,205.2 -163.4,112.7 -150.3,112.7 -245.6,205.2 				"/>
			</g>
		</g>
	</g>
</g>
<g id="Code_1_">
	<g>
		<g>
			<g>
				<g>
					<path class="st21" d="M-379.2,242.6h-21.1c-2.7,0-5,2.2-5,5v10.3c0,2.7,2.2,5,5,5h5.5l4.2,9.5l5.9-9.5h5.5c2.7,0,5-2.2,5-5
						v-10.3C-374.3,244.9-376.5,242.6-379.2,242.6z"/>
				</g>
			</g>
			<g>
				<path class="st9" d="M-392.7,248.5c0-0.5,0.4-1,1-1s1,0.4,1,0.9c0,0.6-0.4,1-1,1C-392.3,249.5-392.7,249-392.7,248.5z
					 M-392.5,250.6h1.6v6.9h-1.6V250.6z"/>
				<path class="st9" d="M-387,250.2v0.4h1.9v1.3h-1.8v5.5h-1.6v-5.5h-1.1v-1.3h1.1v-0.4c0-1.4,0.9-2.4,2.5-2.4
					c0.6,0,1.1,0.1,1.5,0.4l-0.4,1.2c-0.2-0.2-0.6-0.3-0.9-0.3C-386.6,249.1-387,249.5-387,250.2z"/>
			</g>
		</g>
		<g>
			<g>
				<g>
					<path class="st21" d="M-315,244.1h-21.1c-2.7,0-5,2.2-5,5v10.3c0,2.7,2.2,5,5,5h5.5l4.2,9.5l5.9-9.5h5.5c2.7,0,5-2.2,5-5V249
						C-310,246.3-312.3,244.1-315,244.1z"/>
				</g>
			</g>
			<g>
				<path class="st9" d="M-331.7,256h-5.4c0.2,1,1,1.6,2.2,1.6c0.8,0,1.4-0.2,1.9-0.7l0.9,1c-0.6,0.7-1.6,1.1-2.8,1.1
					c-2.3,0-3.8-1.5-3.8-3.5c0-2,1.5-3.5,3.5-3.5c2,0,3.5,1.4,3.5,3.5C-331.6,255.6-331.6,255.8-331.7,256z M-337.1,254.9h3.9
					c-0.1-1-0.9-1.7-1.9-1.7C-336.1,253.2-336.9,253.9-337.1,254.9z"/>
				<path class="st9" d="M-330.1,249.4h1.6v9.5h-1.6V249.4z"/>
				<path class="st9" d="M-327.2,258.2l0.6-1.2c0.6,0.4,1.5,0.7,2.4,0.7c1,0,1.4-0.3,1.4-0.8c0-1.3-4.2-0.1-4.2-2.8
					c0-1.3,1.2-2.1,3-2.1c0.9,0,2,0.2,2.6,0.6l-0.6,1.2c-0.7-0.4-1.3-0.5-2-0.5c-1,0-1.4,0.3-1.4,0.8c0,1.4,4.2,0.2,4.2,2.8
					c0,1.3-1.2,2.1-3.1,2.1C-325.4,259-326.6,258.7-327.2,258.2z"/>
				<path class="st9" d="M-313.4,256h-5.4c0.2,1,1,1.6,2.2,1.6c0.8,0,1.4-0.2,1.9-0.7l0.9,1c-0.6,0.7-1.6,1.1-2.8,1.1
					c-2.3,0-3.8-1.5-3.8-3.5c0-2,1.5-3.5,3.5-3.5c2,0,3.5,1.4,3.5,3.5C-313.3,255.6-313.3,255.8-313.4,256z M-318.7,254.9h3.9
					c-0.1-1-0.9-1.7-1.9-1.7C-317.8,253.2-318.6,253.9-318.7,254.9z"/>
			</g>
		</g>
		<g>
			<g>
				<g>
					<path class="st21" d="M-252.7,243.5h-21.1c-2.7,0-5,2.2-5,5v10.3c0,2.7,2.2,5,5,5h5.5l4.2,9.5l5.9-9.5h5.5c2.7,0,5-2.2,5-5
						v-10.3C-247.8,245.7-250,243.5-252.7,243.5z"/>
				</g>
			</g>
			<g>
				<path class="st9" d="M-269,251.1v0.4h1.9v1.3h-1.8v5.5h-1.6v-5.5h-1.1v-1.3h1.1V251c0-1.4,0.9-2.4,2.5-2.4
					c0.6,0,1.1,0.1,1.5,0.4l-0.5,1.2c-0.2-0.2-0.6-0.3-0.9-0.3C-268.7,250-269,250.3-269,251.1z"/>
				<path class="st9" d="M-266.7,254.9c0-2.1,1.5-3.5,3.6-3.5c2.1,0,3.7,1.5,3.7,3.5c0,2.1-1.5,3.5-3.7,3.5
					C-265.2,258.4-266.7,256.9-266.7,254.9z M-261,254.9c0-1.3-0.9-2.1-2-2.1c-1.2,0-2,0.8-2,2.1c0,1.3,0.9,2.1,2,2.1
					C-261.9,257-261,256.2-261,254.9z"/>
				<path class="st9" d="M-253.9,251.3v1.5c-0.1,0-0.3,0-0.4,0c-1.2,0-2,0.7-2,2.1v3.3h-1.6v-6.9h1.5v1
					C-255.9,251.7-255,251.3-253.9,251.3z"/>
			</g>
		</g>
		<g>
			<g>
				<g>
					<path class="st21" d="M-191.4,242.6h-21.1c-2.7,0-5,2.2-5,5v10.3c0,2.7,2.2,5,5,5h5.5l4.2,9.5l5.9-9.5h5.5c2.7,0,5-2.2,5-5
						v-10.3C-186.4,244.9-188.6,242.6-191.4,242.6z"/>
				</g>
			</g>
			<g>
				<path class="st9" d="M-204.7,250.3h5.9v1.3h-5.9V250.3z M-204.7,253.4h5.9v1.3h-5.9V253.4z"/>
			</g>
		</g>
		<g>
			<g>
				<g>
					<path class="st21" d="M-347.1,230.8h-21.1c-2.7,0-5,2.2-5,5V246c0,2.7,2.2,5,5,5h5.5l4.2,9.5l5.9-9.5h5.5c2.7,0,5-2.2,5-5
						v-10.3C-342.1,233-344.3,230.8-347.1,230.8z"/>
				</g>
			</g>
			<g>
				<path class="st9" d="M-362.6,235h3.1v1.3h-1.5v9.5h1.5v1.3h-3.1V235z"/>
				<path class="st9" d="M-355.5,247v-1.3h1.5v-9.5h-1.5V235h3.1v12H-355.5z"/>
			</g>
		</g>
		<g>
			<g>
				<g>
					<path class="st21" d="M-284.3,229.7h-21.1c-2.7,0-5,2.2-5,5v10.3c0,2.7,2.2,5,5,5h5.5l4.2,9.5l5.9-9.5h5.5c2.7,0,5-2.2,5-5
						v-10.3C-279.4,231.9-281.6,229.7-284.3,229.7z"/>
				</g>
			</g>
			<g>
				<path class="st9" d="M-299.2,239.9c0.5,0.2,0.8,0.5,0.8,1.3v2.4c0,0.6,0.3,1,1,1h0.3v1.3h-0.6c-1.5,0-2.2-0.7-2.2-2.1v-2.6
					c0-0.4-0.2-0.6-0.6-0.6h-0.4v-1.3h0.4c0.4,0,0.6-0.2,0.6-0.6V236c0-1.4,0.7-2.1,2.2-2.1h0.6v1.3h-0.3c-0.6,0-1,0.4-1,1v2.4
					C-298.4,239.4-298.7,239.8-299.2,239.9z"/>
				<path class="st9" d="M-289.4,239.3v1.3h-0.4c-0.3,0-0.6,0.2-0.6,0.6v2.6c0,1.4-0.7,2.1-2.2,2.1h-0.6v-1.3h0.3c0.7,0,1-0.4,1-1
					v-2.4c0-0.8,0.2-1.1,0.7-1.3c-0.5-0.2-0.7-0.5-0.7-1.3v-2.4c0-0.6-0.3-1-1-1h-0.3v-1.3h0.6c1.5,0,2.2,0.7,2.2,2.1v2.6
					c0,0.4,0.2,0.6,0.6,0.6L-289.4,239.3L-289.4,239.3z"/>
			</g>
		</g>
		<g>
			<g>
				<g>
					<path class="st21" d="M-222.3,227.6h-21.1c-2.7,0-5,2.2-5,5v10.3c0,2.7,2.2,5,5,5h5.5l4.2,9.5l5.9-9.5h5.5c2.7,0,5-2.2,5-5
						v-10.3C-217.3,229.8-219.5,227.6-222.3,227.6z"/>
				</g>
			</g>
			<g>
				<path class="st9" d="M-233.7,235.2c0-0.6,0.5-1.1,1.1-1.1c0.6,0,1.1,0.4,1.1,1.1c0,0.6-0.5,1.1-1.1,1.1
					S-233.7,235.8-233.7,235.2z M-231.6,240.1c0,0.3-0.1,0.5-0.3,1.1l-0.7,1.8h-1l0.5-2c-0.4-0.2-0.6-0.5-0.6-1c0-0.6,0.4-1.1,1-1.1
					C-232,239-231.6,239.5-231.6,240.1z"/>
			</g>
		</g>
		<g>
			<g>
				<g>
					<path class="st21" d="M-304.8,407.1h21.1c2.7,0,5-2.2,5-5v-10.3c0-2.7-2.2-5-5-5h-5.5l-1.6-9.5l-8.5,9.5h-5.5c-2.7,0-5,2.2-5,5
						v10.3C-309.7,404.8-307.5,407.1-304.8,407.1z"/>
				</g>
			</g>
			<g>
				<path class="st9" d="M-297.3,394.9l-4.4,1.7l4.4,1.7v1.3l-5.9-2.3v-1.4l5.9-2.3V394.9z"/>
				<path class="st9" d="M-292.7,390.2h1.4l-4.2,12.1h-1.4L-292.7,390.2z"/>
				<path class="st9" d="M-285,395.8v1.4l-5.9,2.3v-1.3l4.4-1.7l-4.4-1.7v-1.3L-285,395.8z"/>
			</g>
		</g>
		<g>
			<g>
				<g>
					<g>
						<path class="st21" d="M-438.9,332.3h21.1c2.7,0,5-2.2,5-5v-10.3c0-2.7-2.2-5-5-5h-5.5l1.2-9.5l-11.3,9.5h-5.5
							c-2.7,0-5,2.2-5,5v10.3C-443.8,330.1-441.6,332.3-438.9,332.3z"/>
					</g>
				</g>
			</g>
			<g>
				<path class="st9" d="M-432.6,325.8c0-0.6,0.4-1,1-1c0.6,0,1,0.4,1,1c0,0.6-0.4,1-1,1C-432.2,326.8-432.6,326.4-432.6,325.8z
					 M-432.5,317.7h1.9l-0.3,6h-1.3L-432.5,317.7z"/>
				<path class="st9" d="M-429,320h5.9v1.3h-5.9C-429,321.3-429,320-429,320z M-429,323.1h5.9v1.3h-5.9
					C-429,324.4-429,323.1-429,323.1z"/>
			</g>
		</g>
	</g>
</g>
<g id="Mouse">
	<g>
		<g>
			<g>
				<g>
					<g>
						<path id="XMLID_4_" class="st2" d="M-101.1,320.7c0,4.1-0.3,8.1-1,11.9c-2.9,17.3-12,29.9-22.8,29.9c-1,0-1.9-0.1-2.9-0.3
							c-11.7-2.5-20.9-20.1-20.9-41.5c0-23.1,10.6-31.2,23.7-31.2C-111.7,289.4-101.1,297.6-101.1,320.7z"/>
					</g>
					<g>
						<defs>
							<path id="SVGID_13_" d="M-101.1,320.7c0,4.1-0.3,8.1-1,11.9c-2.9,17.3-12,29.9-22.8,29.9c-1,0-1.9-0.1-2.9-0.3
								c-11.7-2.5-20.9-20.1-20.9-41.5c0-23.1,10.6-31.2,23.7-31.2C-111.7,289.4-101.1,297.6-101.1,320.7z"/>
						</defs>
						<clipPath id="SVGID_14_">
							<use xlink:href="#SVGID_13_"  style="overflow:visible;"/>
						</clipPath>
						<g class="st26">
							<path class="st0" d="M-109.7,320.9c0.9,12.4-1.2,24.8-4.8,36.7c8.9-7.3,13.1-18.9,16.8-29.8c2.7-8,5.4-16.1,4.9-24.5
								c-0.5-8.4-5-17.1-12.8-20c-3.8-1.4-8.3-1.3-12.1,0.2c-6.6,2.6-3,4.8-0.2,9.5C-113,301.4-110.4,311.2-109.7,320.9z"/>
							<path class="st11" d="M-109.7,320.9c0.9,12.4-1.2,24.8-4.8,36.7c8.9-7.3,13.1-18.9,16.8-29.8c2.7-8,5.4-16.1,4.9-24.5
								c-0.5-8.4-5-17.1-12.8-20c-3.8-1.4-8.3-1.3-12.1,0.2c-6.6,2.6-3,4.8-0.2,9.5C-113,301.4-110.4,311.2-109.7,320.9z"/>
						</g>
					</g>
					<g>
						<path id="XMLID_5_" class="st15" d="M-101.1,320.7c0,4.1-0.3,8.1-1,11.9c-2.9,17.3-12,29.9-22.8,29.9c-1,0-1.9-0.1-2.9-0.3
							c-11.7-2.5-20.9-20.1-20.9-41.5c0-23.1,10.6-31.2,23.7-31.2C-111.7,289.4-101.1,297.6-101.1,320.7z"/>
					</g>
				</g>
				<g>
					<path class="st5" d="M-112.1,341.9c-1.6,5.3-4.2,10.3-7.8,14.6"/>
					<path class="st15" d="M-111.3,339c-0.1,0.6-0.3,1.1-0.4,1.7"/>
					<path class="st5" d="M-111.4,320.6c1.3,5.3,1.4,10.9,0.5,16.3"/>
				</g>
				<path class="st15" d="M-148.5,320.7c0,0,27-10.7,47.5,0"/>
				<path class="st5" d="M-124.8,289.4c0,0,2.7,10,3,26.3"/>
				<path class="st24" d="M-121.1,301.6c0.3,3.1-0.2,5.8-1.2,5.9s-2.1-2.2-2.5-5.3c-0.3-3.1,0.2-5.8,1.2-5.9
					C-122.5,296.1-121.4,298.5-121.1,301.6z"/>
			</g>
		</g>
		<path class="st15" d="M-135.5,370.5h-31.6c-3.9,0-7.2-2.9-7.7-6.7c-0.1-0.3-0.1-0.7-0.1-1.1v-74.6c0-0.4,0-0.7,0.1-1.1
			c0.5-3.8,3.8-6.7,7.7-6.7h89.7c1.4,0,2.6,0.4,3.7,1"/>
	</g>
</g>
<g>
	<path class="st27" d="M480.2,347.8c-43.2-45.4-37.9-70.7,19.6-97.3c-57.5-26.6-62.9-51.9-19.6-97.3c-62.7-0.6-76.8-21.4-53.5-79.4
		c-58.1,23.2-78.8,9.2-79.4-53.5C301.9,63.6,276.6,58.2,250,0.7c-26.6,57.5-51.9,62.9-97.3,19.6c-0.6,62.7-21.4,76.8-79.4,53.5
		c23.2,58.1,9.2,78.8-53.5,79.4C63,198.7,57.6,224,0.1,250.5c57.5,26.6,62.9,51.9,19.6,97.3c62.7,0.6,76.8,21.4,53.5,79.4
		c58.1-23.2,78.8-9.2,79.4,53.5c45.4-43.2,70.7-37.9,97.3,19.6c26.6-57.5,51.9-62.9,97.3-19.6c0.6-62.7,21.4-76.8,79.4-53.5
		C403.4,369.2,417.5,348.4,480.2,347.8z M250,431.5c-99.9,0-181-81-181-181c0-99.9,81-181,181-181s181,81,181,181
		C431,350.5,349.9,431.5,250,431.5z"/>
	<circle class="st27" cx="250" cy="250.5" r="163.6"/>
	<path class="st28" d="M250,385.6c-74.6,0-135.1-60.5-135.1-135.1c0-74.6,60.5-135.1,135.1-135.1"/>
</g>
</svg>
